<svg version="1.1" id="Layer_1" xmlns="http://www.w3.org/2000/svg" xmlns:xlink="http://www.w3.org/1999/xlink" x="0px" y="0px"
	 width="100%" viewBox="0 0 512 361" enable-background="new 0 0 512 361" xml:space="preserve">
<path fill="#D92724" opacity="1.000000" stroke="none" 
	d="
M513.000000,118.000000 
	C513.000000,121.361290 513.000000,124.722572 512.581299,128.497498 
	C509.862793,128.608231 507.563171,128.041809 505.263245,128.040512 
	C423.720428,127.994995 342.177521,127.987778 260.634827,128.093109 
	C258.736084,128.095566 256.839142,129.448608 254.579193,130.108200 
	C253.906952,129.947388 253.574722,129.893066 253.289948,129.746552 
	C241.180008,123.515953 229.074310,117.277145 216.806091,110.794510 
	C216.092468,110.373100 215.540848,110.196533 214.852127,109.748779 
	C214.143646,109.310394 213.572281,109.143181 212.796661,108.687843 
	C210.158051,107.213387 207.723663,106.027054 204.499512,104.455849 
	C204.499512,116.854820 204.499512,128.428116 204.062225,140.002380 
	C136.083298,140.002243 68.541649,140.001114 1.000000,140.000000 
	C1.000000,135.643097 1.000000,131.286194 1.424267,126.594070 
	C2.231478,125.250542 2.870431,124.264076 2.958516,123.230652 
	C4.072900,110.156494 5.107965,97.075569 6.621293,83.997406 
	C170.302536,83.999161 333.525757,84.009895 496.748932,83.946808 
	C501.131744,83.945114 505.286530,84.063278 508.904694,87.432022 
	C509.656769,97.289200 510.303284,106.713089 511.103333,116.123924 
	C511.160675,116.798157 512.341553,117.376877 513.000000,118.000000 
z"/>
<path fill="#E22B26" opacity="1.000000" stroke="none" 
	d="
M164.000000,0.999997 
	C226.020889,1.000000 288.041779,1.000000 350.370056,1.419436 
	C351.690430,2.222007 352.691742,2.903874 353.718140,2.943959 
	C372.388031,3.673070 391.065277,4.225215 409.731506,5.033117 
	C419.927338,5.474410 430.098846,6.464303 440.293610,6.948178 
	C452.944305,7.548618 464.726898,10.749797 475.373932,17.751757 
	C488.341431,26.279718 497.176727,37.827560 500.721619,53.121727 
	C498.529755,53.523724 496.729614,53.969471 494.929443,53.969711 
	C334.245209,53.990993 173.560959,53.978043 12.929647,53.584103 
	C16.422403,42.446865 21.369068,32.506744 29.790825,24.780882 
	C43.582737,12.128610 60.567574,7.407487 78.710144,6.033745 
	C90.067146,5.173801 101.443100,4.452521 112.824020,4.047418 
	C128.082230,3.504303 143.353485,3.328342 158.619049,2.990685 
	C160.113876,2.957621 161.630249,3.021876 163.087967,2.765037 
	C163.483368,2.695372 163.700851,1.615959 164.000000,0.999997 
z"/>
<path fill="#CC1E20" opacity="1.000000" stroke="none" 
	d="
M513.000000,225.000000 
	C513.000000,231.354401 513.000000,237.708786 512.581238,244.445709 
	C511.719086,247.884308 511.275696,250.940399 510.374603,253.997314 
	C341.333618,253.997559 172.750351,253.997009 4.078012,253.580261 
	C3.658811,248.754654 3.460176,244.329071 2.921038,239.945374 
	C2.752162,238.572250 1.666188,237.311951 1.000001,236.000000 
	C1.000000,231.310745 1.000000,226.621490 1.468594,221.457214 
	C69.456818,220.988602 136.976456,220.994995 204.598969,221.459824 
	C204.701874,230.130951 204.701874,238.343658 204.701874,247.167908 
	C221.215332,238.740173 237.036194,230.665894 253.174011,222.885406 
	C255.768478,223.452789 258.045898,223.964401 260.323578,223.965561 
	C341.421906,224.006668 422.520294,223.988815 503.618622,224.042175 
	C506.745941,224.044250 509.872894,224.666656 513.000000,225.000000 
z"/>
<path fill="#C0181D" opacity="1.000000" stroke="none" 
	d="
M326.000000,362.000000 
	C284.312439,362.000000 242.624878,362.000000 200.554108,361.570984 
	C198.994583,360.761139 197.826050,360.075806 196.640747,360.045471 
	C180.901825,359.642395 165.159378,359.377075 149.420273,358.979950 
	C139.997360,358.742249 130.574661,358.421753 121.159210,357.981384 
	C108.799194,357.403290 96.441177,356.753845 84.091995,355.980377 
	C71.942146,355.219421 59.903465,353.523621 48.554127,348.933014 
	C38.203537,344.746429 29.029060,338.778229 23.299587,328.954529 
	C26.184168,328.579651 28.650379,328.045898 31.118193,328.038361 
	C52.783920,327.972290 74.449928,328.000000 96.115860,328.000000 
	C224.778137,328.000000 353.440430,327.986145 482.102631,328.085480 
	C485.105896,328.087799 488.108154,329.363556 490.958801,330.350403 
	C484.116913,338.367828 476.477844,344.740936 467.108673,349.145203 
	C454.100952,355.259918 440.059387,355.547394 426.252411,356.871246 
	C413.444183,358.099365 400.546722,358.558777 387.676239,358.937103 
	C368.945374,359.487640 350.203400,359.661987 331.466187,359.996460 
	C330.136505,360.020233 328.758057,359.842377 327.497986,360.150085 
	C326.884613,360.299835 326.492340,361.354797 326.000000,362.000000 
z"/>
<path fill="#D42322" opacity="1.000000" stroke="none" 
	d="
M254.941345,130.171677 
	C256.839142,129.448608 258.736084,128.095566 260.634827,128.093109 
	C342.177521,127.987778 423.720428,127.994995 505.263245,128.040512 
	C507.563171,128.041809 509.862793,128.608231 512.581299,128.955566 
	C513.000000,148.020889 513.000000,167.041794 512.579834,186.560318 
	C510.024933,187.370407 507.890442,187.953995 505.755432,187.955795 
	C446.425781,188.006104 387.096069,188.011261 327.766541,187.923691 
	C326.177490,187.921341 324.590057,186.808731 323.248779,186.045013 
	C323.978729,185.524612 324.461823,185.173050 325.292542,184.774170 
	C330.923828,181.914337 336.207428,179.101807 342.162659,175.931763 
	C330.058014,169.628647 318.905670,163.862030 307.790680,158.024323 
	C290.161102,148.765076 272.556519,139.458328 254.941345,130.171677 
z"/>
<path fill="#D42322" opacity="1.000000" stroke="none" 
	d="
M1.000000,140.468658 
	C68.541649,140.001114 136.083298,140.002243 204.163452,140.461273 
	C204.633896,155.946289 204.565826,170.973373 204.060577,186.001266 
	C139.458176,186.001373 75.292938,185.980316 11.127784,186.044403 
	C6.707403,186.048813 2.610873,186.257324 2.501305,180.153503 
	C2.494244,179.760147 1.522820,179.384094 1.000001,179.000000 
	C1.000000,166.312439 1.000000,153.624878 1.000000,140.468658 
z"/>
<path fill="#CF2121" opacity="1.000000" stroke="none" 
	d="
M323.001892,186.213867 
	C324.590057,186.808731 326.177490,187.921341 327.766541,187.923691 
	C387.096069,188.011261 446.425781,188.006104 505.755432,187.955795 
	C507.890442,187.953995 510.024933,187.370407 512.579834,187.028976 
	C513.000000,199.354233 513.000000,211.708450 513.000000,224.531342 
	C509.872894,224.666656 506.745941,224.044250 503.618622,224.042175 
	C422.520294,223.988815 341.421906,224.006668 260.323578,223.965561 
	C258.045898,223.964401 255.768478,223.452789 253.401932,222.643097 
	C276.542572,210.142624 299.772217,198.178238 323.001892,186.213867 
z"/>
<path fill="#CF2121" opacity="1.000000" stroke="none" 
	d="
M1.000001,179.468658 
	C1.522820,179.384094 2.494244,179.760147 2.501305,180.153503 
	C2.610873,186.257324 6.707403,186.048813 11.127784,186.044403 
	C75.292938,185.980316 139.458176,186.001373 204.162888,186.460007 
	C204.633621,198.279099 204.564850,209.640244 204.496078,221.001389 
	C136.976456,220.994995 69.456818,220.988602 1.468594,220.991104 
	C1.000000,207.312439 1.000000,193.624878 1.000001,179.468658 
z"/>
<path fill="#000000" opacity="1.000000" stroke="none" 
	d="
M22.881962,329.039642 
	C29.029060,338.778229 38.203537,344.746429 48.554127,348.933014 
	C59.903465,353.523621 71.942146,355.219421 84.091995,355.980377 
	C96.441177,356.753845 108.799194,357.403290 121.159210,357.981384 
	C130.574661,358.421753 139.997360,358.742249 149.420273,358.979950 
	C165.159378,359.377075 180.901825,359.642395 196.640747,360.045471 
	C197.826050,360.075806 198.994583,360.761139 200.085449,361.570984 
	C133.756042,362.000000 67.512100,362.000000 1.000000,362.000000 
	C1.000000,320.312836 1.000000,278.625061 1.000001,236.468658 
	C1.666188,237.311951 2.752162,238.572250 2.921038,239.945374 
	C3.460176,244.329071 3.658811,248.754654 4.012276,254.033600 
	C4.744770,262.933838 5.453925,270.964508 6.097693,279.418152 
	C7.367724,286.751068 8.264789,293.782684 10.141492,300.542358 
	C12.942411,310.630890 16.398558,320.543610 22.881962,329.039642 
z"/>
<path fill="#000000" opacity="1.000000" stroke="none" 
	d="
M326.468658,362.000000 
	C326.492340,361.354797 326.884613,360.299835 327.497986,360.150085 
	C328.758057,359.842377 330.136505,360.020233 331.466187,359.996460 
	C350.203400,359.661987 368.945374,359.487640 387.676239,358.937103 
	C400.546722,358.558777 413.444183,358.099365 426.252411,356.871246 
	C440.059387,355.547394 454.100952,355.259918 467.108673,349.145203 
	C476.477844,344.740936 484.116913,338.367828 491.248413,330.166473 
	C494.012787,325.365417 496.667297,321.195984 498.593475,316.713593 
	C503.630066,304.993164 507.274628,292.867737 507.924072,279.582794 
	C508.951721,270.779114 509.892059,262.387817 510.832336,253.996506 
	C511.275696,250.940399 511.719086,247.884308 512.581238,244.914108 
	C513.000000,283.943817 513.000000,322.887604 513.000000,362.000000 
	C450.979218,362.000000 388.958252,362.000000 326.468658,362.000000 
z"/>
<path fill="#000000" opacity="1.000000" stroke="none" 
	d="
M163.531342,0.999997 
	C163.700851,1.615959 163.483368,2.695372 163.087967,2.765037 
	C161.630249,3.021876 160.113876,2.957621 158.619049,2.990685 
	C143.353485,3.328342 128.082230,3.504303 112.824020,4.047418 
	C101.443100,4.452521 90.067146,5.173801 78.710144,6.033745 
	C60.567574,7.407487 43.582737,12.128610 29.790825,24.780882 
	C21.369068,32.506744 16.422403,42.446865 12.613210,53.792938 
	C10.216983,64.255516 8.190125,74.125946 6.163266,83.996376 
	C5.107965,97.075569 4.072900,110.156494 2.958516,123.230652 
	C2.870431,124.264076 2.231478,125.250542 1.424267,126.129417 
	C1.000000,84.396713 1.000000,42.793427 1.000000,1.000000 
	C55.020744,1.000000 109.041718,1.000000 163.531342,0.999997 
z"/>
<path fill="#000000" opacity="1.000000" stroke="none" 
	d="
M501.113342,52.957512 
	C497.176727,37.827560 488.341431,26.279718 475.373932,17.751757 
	C464.726898,10.749797 452.944305,7.548618 440.293610,6.948178 
	C430.098846,6.464303 419.927338,5.474410 409.731506,5.033117 
	C391.065277,4.225215 372.388031,3.673070 353.718140,2.943959 
	C352.691742,2.903874 351.690430,2.222007 350.838715,1.419436 
	C404.915192,1.000000 458.830414,1.000000 513.000000,1.000000 
	C513.000000,39.687191 513.000000,78.374939 513.000000,117.531342 
	C512.341553,117.376877 511.160675,116.798157 511.103333,116.123924 
	C510.303284,106.713089 509.656769,97.289200 508.968689,87.009949 
	C506.347473,75.086777 503.730408,64.022148 501.113342,52.957512 
z"/>
<path fill="#DD2925" opacity="1.000000" stroke="none" 
	d="
M500.721619,53.121727 
	C503.730408,64.022148 506.347473,75.086777 508.900543,86.573486 
	C505.286530,84.063278 501.131744,83.945114 496.748932,83.946808 
	C333.525757,84.009895 170.302536,83.999161 6.621293,83.997406 
	C8.190125,74.125946 10.216983,64.255516 12.560278,54.176254 
	C173.560959,53.978043 334.245209,53.990993 494.929443,53.969711 
	C496.729614,53.969471 498.529755,53.523724 500.721619,53.121727 
z"/>
<path fill="#FFFFFF" opacity="1.000000" stroke="none" 
	d="
M204.598969,221.459824 
	C204.564850,209.640244 204.633621,198.279099 204.600067,186.459213 
	C204.565826,170.973373 204.633896,155.946289 204.600739,140.460297 
	C204.499512,128.428116 204.499512,116.854820 204.499512,104.455849 
	C207.723663,106.027054 210.158051,107.213387 212.983032,108.915619 
	C213.912155,109.627670 214.450699,109.823814 214.989227,110.019958 
	C215.540848,110.196533 216.092468,110.373100 216.898987,111.118408 
	C218.676849,112.942955 220.104141,114.341888 221.736984,115.433273 
	C249.571625,134.037811 277.447083,152.581253 305.274902,171.195892 
	C311.903656,175.630005 318.391998,180.274017 324.944916,184.821487 
	C324.461823,185.173050 323.978729,185.524612 323.248779,186.045013 
	C299.772217,198.178238 276.542572,210.142624 253.084991,222.349304 
	C237.036194,230.665894 221.215332,238.740173 204.701874,247.167908 
	C204.701874,238.343658 204.701874,230.130951 204.598969,221.459824 
z"/>
<path fill="#E9DFDF" opacity="1.000000" stroke="none" 
	d="
M325.292542,184.774170 
	C318.391998,180.274017 311.903656,175.630005 305.274902,171.195892 
	C277.447083,152.581253 249.571625,134.037811 221.736984,115.433273 
	C220.104141,114.341888 218.676849,112.942955 217.060989,111.363251 
	C229.074310,117.277145 241.180008,123.515953 253.289948,129.746552 
	C253.574722,129.893066 253.906952,129.947388 254.579193,130.108200 
	C272.556519,139.458328 290.161102,148.765076 307.790680,158.024323 
	C318.905670,163.862030 330.058014,169.628647 342.162659,175.931763 
	C336.207428,179.101807 330.923828,181.914337 325.292542,184.774170 
z"/>
<path fill="#E9DFDF" opacity="1.000000" stroke="none" 
	d="
M214.852127,109.748779 
	C214.450699,109.823814 213.912155,109.627670 213.187256,109.203743 
	C213.572281,109.143181 214.143646,109.310394 214.852127,109.748779 
z"/>
<path fill="#C91D20" opacity="1.000000" stroke="none" 
	d="
M510.374634,253.997314 
	C509.892059,262.387817 508.951721,270.779114 507.466187,279.584045 
	C355.799072,279.998474 204.677170,280.028839 53.555325,279.955994 
	C37.757759,279.948364 21.960487,279.330139 6.163081,278.995178 
	C5.453925,270.964508 4.744770,262.933838 4.101350,254.449799 
	C172.750351,253.997009 341.333618,253.997559 510.374634,253.997314 
z"/>
<path fill="#C51A1E" opacity="1.000000" stroke="none" 
	d="
M6.097693,279.418152 
	C21.960487,279.330139 37.757759,279.948364 53.555325,279.955994 
	C204.677170,280.028839 355.799072,279.998474 507.378845,279.996460 
	C507.274628,292.867737 503.630066,304.993164 498.593475,316.713593 
	C496.667297,321.195984 494.012787,325.365417 491.400513,329.861389 
	C488.108154,329.363556 485.105896,328.087799 482.102631,328.085480 
	C353.440430,327.986145 224.778137,328.000000 96.115860,328.000000 
	C74.449928,328.000000 52.783920,327.972290 31.118193,328.038361 
	C28.650379,328.045898 26.184168,328.579651 23.299587,328.954529 
	C16.398558,320.543610 12.942411,310.630890 10.141492,300.542358 
	C8.264789,293.782684 7.367724,286.751068 6.097693,279.418152 
z"/>
</svg>