<svg xmlns="http://www.w3.org/2000/svg" width="512" height="361" viewBox="0 0 512 361" version="1.1"><path d="M 204 175.087 L 204 246.174 219.250 238.249 C 227.637 233.891, 258.238 218.029, 287.250 203.001 C 316.262 187.974, 340 175.370, 340 174.993 C 340 174.331, 205.888 104, 204.625 104 C 204.281 104, 204 135.989, 204 175.087" stroke="none" fill="#f9f8f8" fill-rule="evenodd"/><path d="M 204.500 0.686 C 152.725 1.285, 85.649 4.201, 68.528 6.598 C 37.425 10.953, 19.579 26.844, 10.194 58.543 C 4.843 76.618, 2.557 98.511, 0.891 147.647 C -0.768 196.574, 1.877 261.137, 6.598 286.964 C 9.832 304.659, 16.619 321.666, 24.222 331.127 C 28.219 336.100, 35.932 341.927, 43.726 345.862 C 60.728 354.444, 84.723 356.802, 177.500 359.003 C 288.442 361.636, 425.015 358.335, 452.500 352.357 C 464.229 349.806, 475.360 343.690, 484.043 335.026 C 492.481 326.607, 496.374 320, 500.881 306.450 C 506.309 290.129, 508.796 272.019, 510.967 233.023 C 513.724 183.484, 512.954 140.757, 508.453 93.556 C 504.140 48.331, 492.535 25.538, 467.730 13.573 C 462.571 11.084, 455.192 8.458, 451 7.619 C 435.744 4.563, 394.110 2.477, 319 1.004 C 273.084 0.104, 258.427 0.063, 204.500 0.686 M 204 175.087 L 204 246.174 219.250 238.249 C 227.637 233.891, 258.238 218.029, 287.250 203.001 C 316.262 187.974, 340 175.370, 340 174.993 C 340 174.331, 205.888 104, 204.625 104 C 204.281 104, 204 135.989, 204 175.087 M 0.422 180 C 0.422 191.275, 0.568 195.887, 0.746 190.250 C 0.924 184.613, 0.924 175.387, 0.746 169.750 C 0.568 164.113, 0.422 168.725, 0.422 180" stroke="none" fill="#d31d1d" fill-rule="evenodd"/></svg>