<?xml version="1.0" encoding="UTF-8"?>
<svg version="1.1" xmlns="http://www.w3.org/2000/svg" width="1440" height="900">
<path d="M0 0 C24.08451269 0.03014422 48.16885099 0.07867173 72.25319862 0.1750077 C74.17382358 0.18266999 76.09444859 0.19031981 78.01507366 0.19795698 C78.95818301 0.2017141 79.90129237 0.20547122 80.87298079 0.2093422 C87.40402022 0.23440956 93.93503507 0.24965307 100.46611249 0.26033705 C108.32718011 0.27334601 116.18805056 0.30023275 124.04900425 0.34496903 C128.03134878 0.36730676 132.01345873 0.383784 135.99587163 0.38294892 C177.10720497 0.38597212 177.10720497 0.38597212 195.22362244 8.80508858 C196.00278016 9.15128243 196.78193787 9.49747627 197.58470643 9.85416085 C207.86642485 14.55895303 215.8531026 21.27303181 224.03612244 28.99258858 C224.60975525 29.52497139 225.18338807 30.0573542 225.77440369 30.60586983 C226.9079221 31.68830008 227.98182307 32.83285927 229.03612244 33.99258858 C229.03612244 34.65258858 229.03612244 35.31258858 229.03612244 35.99258858 C229.69612244 35.99258858 230.35612244 35.99258858 231.03612244 35.99258858 C236.09031872 42.02276759 239.7262946 48.91486037 242.78612244 56.11758858 C243.18963929 57.03592476 243.18963929 57.03592476 243.60130799 57.97281319 C250.63720854 75.38196276 250.63007233 93.20940982 250.5849295 111.69066067 C250.57991783 115.56274544 250.59815206 119.43473647 250.61333001 123.30678517 C250.6365804 130.03590969 250.64537118 136.76492679 250.64420426 143.49408966 C250.64252196 153.3661736 250.66330272 163.23811851 250.68883224 173.11016499 C250.73290223 190.41911305 250.75514291 207.72803333 250.76786406 225.03702968 C250.77898197 239.9909355 250.79861657 254.94480214 250.82658875 269.89868599 C250.82842697 270.88526197 250.83026519 271.87183795 250.83215912 272.88831017 C250.83960816 276.87395162 250.84711023 280.85959296 250.85468397 284.84523417 C250.92681899 322.82780701 250.97476049 360.8103716 251.00777352 398.79299694 C251.01091154 402.40084829 251.01405471 406.00869964 251.01720154 409.61655098 C251.01796149 410.49232337 251.01872144 411.36809577 251.01950441 412.27040672 C251.03448953 429.4247176 251.0568927 446.57901256 251.08202088 463.73331124 C251.11685793 487.73224929 251.14383529 511.73117764 251.15771973 535.73013741 C251.15987815 539.4252876 251.16247985 543.12043704 251.16550171 546.81558663 C251.21759089 611.2930257 251.21759089 611.2930257 250.70918381 643.43456513 C250.67265906 645.74767782 250.63863087 648.06083164 250.60741532 650.37402207 C250.5633305 653.4934779 250.50673945 656.61243587 250.44579041 659.73160225 C250.4346307 660.6184162 250.423471 661.50523014 250.41197312 662.41891724 C250.19947758 671.61624446 248.64819255 680.42079452 245.28612244 688.99258858 C245.02371766 689.67337471 244.76131287 690.35416085 244.49095643 691.05557686 C240.69941335 700.64814691 235.7057207 710.06814322 229.03612244 717.99258858 C228.37612244 717.99258858 227.71612244 717.99258858 227.03612244 717.99258858 C226.78604432 718.56622139 226.53596619 719.1398542 226.27830994 719.73086983 C224.86317668 722.30748039 223.2319876 724.09750154 221.16112244 726.18008858 C220.48307557 726.87489327 219.80502869 727.56969795 219.10643494 728.28555733 C217.00526213 730.01803378 215.69510099 730.59314561 213.03612244 730.99258858 C213.03612244 731.65258858 213.03612244 732.31258858 213.03612244 732.99258858 C210.89838524 734.52831933 208.79247946 735.89968459 206.53612244 737.24258858 C205.53029114 737.84212349 205.53029114 737.84212349 204.50414002 738.45377022 C182.15365616 751.35177013 158.62678657 751.14845455 133.56659424 751.10611397 C131.19795834 751.10583357 128.82932235 751.10599769 126.4606865 751.10656506 C120.65718212 751.10682866 114.85369432 751.10246948 109.0501937 751.09613447 C102.08759429 751.08880832 95.12499678 751.08739548 88.16239406 751.08621147 C75.29231585 751.08388012 62.42224387 751.07703403 49.55216897 751.06775337 C31.88631185 751.05507809 14.22045677 751.04909002 -3.44540415 751.04482001 C-11.71006784 751.04281375 -19.97473144 751.04048581 -28.23939502 751.03807503 C-29.06696641 751.03783402 -29.89453779 751.037593 -30.7471871 751.03734469 C-50.44319758 751.0315343 -70.13920644 751.02258413 -89.83521545 751.01309639 C-90.69641498 751.01268275 -91.55761452 751.0122691 -92.444911 751.01184292 C-108.11396362 751.00431156 -123.78301611 750.99652966 -139.45206857 750.98868452 C-150.65270083 750.98307756 -161.85333312 750.97753476 -173.05396545 750.97208077 C-173.90296155 750.97166618 -174.75195765 750.97125159 -175.62668091 750.97082444 C-195.13621635 750.96131501 -214.6457516 750.95276991 -234.15528858 750.94710213 C-235.39776587 750.94674064 -235.39776587 750.94674064 -236.66534371 750.94637185 C-244.95495227 750.94398135 -253.24456086 750.94175391 -261.53416954 750.9397656 C-278.35117786 750.93569896 -295.16817999 750.92962511 -311.98518455 750.91742378 C-329.94772687 750.90451151 -347.91026586 750.89579158 -365.87281311 750.89493233 C-366.58390021 750.89488783 -367.29498731 750.89484332 -368.0276225 750.89479747 C-409.2047613 750.89296747 -450.37383983 751.11757733 -491.54789531 751.64083248 C-495.09543128 751.68573685 -498.64297114 751.73031116 -502.19051635 751.77447945 C-503.46841198 751.79040224 -503.46841198 751.79040224 -504.77212369 751.8066467 C-531.11566317 752.13005914 -557.45746 752.06668913 -583.80236328 751.95791656 C-587.96723824 751.94094653 -592.13212035 751.92678375 -596.29700744 751.91316086 C-597.00822234 751.91082746 -597.71943724 751.90849405 -598.45220411 751.90608994 C-599.90008819 751.90134132 -601.34797227 751.89659426 -602.79585636 751.89184872 C-615.9941923 751.84825302 -629.19248454 751.79639073 -642.39077747 751.74145887 C-654.41100663 751.69170445 -666.43124428 751.6531102 -678.45152771 751.61922427 C-690.99766765 751.58375622 -703.5437638 751.54104482 -716.08985221 751.49046886 C-723.05515903 751.4625131 -730.02044743 751.4372841 -736.98578918 751.41980988 C-743.46137774 751.4034816 -749.93687494 751.37692744 -756.41239822 751.34349877 C-758.77465696 751.33286808 -761.13693334 751.32553879 -763.4992131 751.32183319 C-777.60485853 751.29738798 -790.92578177 751.25286947 -804.33887756 746.36758858 C-805.41323059 745.97845284 -805.41323059 745.97845284 -806.50928771 745.58145577 C-818.80548323 740.94621219 -828.65445151 734.27174007 -837.96387756 724.99258858 C-838.84172912 724.12376045 -839.71958068 723.25493233 -840.62403381 722.35977608 C-843.25537347 719.69768621 -845.66062764 716.93708421 -847.96387756 713.99258858 C-848.76825256 712.99872139 -848.76825256 712.99872139 -849.58887756 711.98477608 C-857.96476176 700.95403572 -862.53839559 687.51931497 -864.96387756 673.99258858 C-865.13658288 673.1464217 -865.3092882 672.30025483 -865.48722702 671.42844653 C-866.10235721 666.99438051 -866.1053423 662.65787341 -866.09809864 658.1868301 C-866.10045087 657.19958914 -866.1028031 656.21234817 -866.10522661 655.19519082 C-866.11190641 651.87278834 -866.11145869 648.55042506 -866.11104858 645.22801644 C-866.11434785 642.82749525 -866.11807355 640.42697461 -866.12219006 638.02645469 C-866.13115974 632.11155413 -866.13543661 626.19666062 -866.13770902 620.28175471 C-866.1406735 613.19657519 -866.14937248 606.11140557 -866.1581233 599.02623126 C-866.17896081 581.89910198 -866.1894372 564.77197098 -866.19825291 547.64483198 C-866.20246122 539.53887471 -866.20768303 531.43291817 -866.21293744 523.32696153 C-866.23082882 495.56857521 -866.24582311 467.81018867 -866.25325763 440.05179745 C-866.25373239 438.30927769 -866.25420828 436.56675792 -866.25468529 434.82423816 C-866.25492167 433.96011934 -866.25515805 433.09600051 -866.25540159 432.20569626 C-866.25660276 427.8277756 -866.25781822 423.44985494 -866.25904357 419.07193428 C-866.25928372 418.20312789 -866.25952387 417.3343215 -866.2597713 416.43918764 C-866.26765962 388.28701484 -866.29108119 360.13488423 -866.32359952 331.98272985 C-866.35793184 302.20564964 -866.37761202 272.42859411 -866.38090187 242.65149379 C-866.3813194 239.37963487 -866.38179895 236.10777596 -866.38232505 232.83591706 C-866.38244824 232.03031721 -866.38257144 231.22471737 -866.38269836 230.39470542 C-866.38502637 217.45362849 -866.4006642 204.51260071 -866.4211669 191.57154127 C-866.44146796 178.55063806 -866.44688205 165.5297936 -866.43739627 152.50887749 C-866.4321976 144.78317711 -866.43798092 137.05767297 -866.45993094 129.332001 C-866.47511676 123.54745576 -866.46913902 117.76308056 -866.45526042 111.97853913 C-866.45288943 109.6499941 -866.45718115 107.3214299 -866.46908907 104.99291412 C-866.55636646 86.7878586 -865.18115149 69.54126525 -856.96387756 52.99258858 C-856.43794006 51.90333077 -855.91200256 50.81407295 -855.37012756 49.69180733 C-851.73173886 42.52252778 -847.63070016 36.68163401 -841.96387756 30.99258858 C-841.16981506 30.17790108 -840.37575256 29.36321358 -839.55762756 28.52383858 C-835.28840895 24.35749271 -830.62401451 20.70847038 -825.96387756 16.99258858 C-825.38895568 16.50403389 -824.81403381 16.0154792 -824.22169006 15.51211983 C-818.3590092 10.81893748 -810.9279394 8.57518815 -803.96387756 5.99258858 C-803.12211975 5.67032295 -802.28036193 5.34805733 -801.41309631 5.01602608 C-791.17236009 1.30914167 -780.62517166 0.69694381 -769.82746971 0.72808224 C-768.55268862 0.72378658 -767.27790754 0.71949092 -765.96449673 0.71506509 C-762.44402087 0.7034823 -758.92364055 0.70415028 -755.40315072 0.70691563 C-751.5635342 0.70772419 -747.72394666 0.69695659 -743.88434362 0.68769574 C-737.15643281 0.6730563 -730.42854542 0.66577133 -723.70061958 0.66334397 C-713.68741624 0.65970478 -703.67425236 0.64466931 -693.66106443 0.62738991 C-675.73100851 0.59681807 -657.80095368 0.57751728 -639.87087853 0.56280459 C-624.08040604 0.54979333 -608.28994403 0.53270951 -592.49948013 0.51171356 C-591.44778476 0.51031957 -590.39608939 0.50892558 -589.31252447 0.50748935 C-585.04051269 0.50181882 -580.76850093 0.49612623 -576.49648922 0.49040269 C-536.32591406 0.43661971 -496.15533395 0.39380174 -455.98474062 0.35632034 C-420.68968852 0.32333489 -385.39465441 0.28266391 -350.09961975 0.23453194 C-347.85555475 0.23147424 -345.61148976 0.22841671 -343.36742477 0.22535936 C-342.2577782 0.22384741 -341.14813164 0.22233547 -340.00485942 0.2207777 C-334.41294857 0.21316236 -328.8210377 0.20556407 -323.22912681 0.19798428 C-322.124756 0.19648656 -321.02038519 0.19498885 -319.8825486 0.19344575 C-290.09153239 0.15315001 -260.30050933 0.11880612 -230.50948381 0.08619237 C-229.43844438 0.08501868 -228.36740495 0.08384498 -227.26390977 0.08263573 C-226.19526203 0.08146472 -225.12661428 0.08029371 -224.02558327 0.07908722 C-222.426293 0.07733437 -222.426293 0.07733437 -220.79469384 0.07554611 C-218.64797443 0.07319542 -216.50125501 0.07084954 -214.35453559 0.0685085 C-199.74084487 0.05253513 -185.12715807 0.03453628 -170.51347173 0.01498027 C-116.63628601 -0.05679058 -62.75933028 -0.08366906 -8.88212989 -0.01127135 C-5.92142011 -0.00735526 -2.96071012 -0.00365606 0 0 Z " fill="#DE2C26" transform="translate(1027.9638775587082,80.0074114203453)"/>
<path d="M0 0 C8.16091544 8.40400654 9.24823748 16.87611797 9.19946289 28.25512695 C8.96016541 39.87222208 5.70536601 48.29085509 -2.1640625 56.890625 C-2.95103516 57.75494141 -2.95103516 57.75494141 -3.75390625 58.63671875 C-5.1640625 59.890625 -5.1640625 59.890625 -7.1640625 59.890625 C-7.1640625 60.550625 -7.1640625 61.210625 -7.1640625 61.890625 C-19.43247297 70.46495607 -37.13018384 69.7504937 -51.55224609 71.12402344 C-65.26444513 72.44535628 -78.9138524 74.37341748 -92.5390625 76.390625 C-93.26158203 76.49689209 -93.98410156 76.60315918 -94.72851562 76.71264648 C-102.89977615 77.94899216 -111.03015906 79.43230972 -119.1640625 80.890625 C-119.90483032 81.02301575 -120.64559814 81.15540649 -121.40881348 81.29180908 C-139.81061528 84.58628144 -158.03470276 87.95886538 -175.97851562 93.28320312 C-178.99815439 94.12244142 -182.05083878 94.76623364 -185.11425781 95.42358398 C-187.85305403 96.04760937 -190.49657858 96.88854469 -193.1640625 97.765625 C-198.25246068 99.37279972 -203.33795644 100.66345294 -208.5390625 101.828125 C-215.22881501 103.34053901 -221.63543469 105.30232832 -228.12109375 107.55078125 C-232.73030027 109.11710586 -237.41248433 110.40024016 -242.1015625 111.703125 C-252.98437661 114.74867749 -263.67146622 118.30854826 -274.36914062 121.94433594 C-277.69976086 123.07199876 -281.03747 124.17722642 -284.37646484 125.27978516 C-299.26095517 130.20208643 -313.99209474 135.5396444 -328.7265625 140.890625 C-329.41904083 141.14193176 -330.11151917 141.39323853 -330.82498169 141.65216064 C-344.03170176 146.44760325 -357.21717201 151.29954161 -370.2890625 156.453125 C-376.84800393 159.02346341 -383.44231356 161.44168616 -390.0859375 163.78515625 C-393.51720638 165.01745205 -396.89430023 166.34960258 -400.26953125 167.7265625 C-402.66150264 168.68851591 -405.059377 169.62731608 -407.46484375 170.5546875 C-408.24698242 170.85648926 -409.02912109 171.15829102 -409.83496094 171.46923828 C-411.38312785 172.06568397 -412.93191736 172.66051717 -414.48144531 173.25341797 C-418.20203419 174.68939162 -421.87292209 176.18643051 -425.5078125 177.828125 C-430.79773546 180.20902041 -436.19231752 182.29833618 -441.6015625 184.390625 C-443.55873879 185.15066828 -445.51577125 185.91108204 -447.47265625 186.671875 C-448.42060059 187.03909668 -449.36854492 187.40631836 -450.34521484 187.78466797 C-453.89527742 189.17751254 -457.42184592 190.6255459 -460.94360352 192.08837891 C-467.95890609 194.6229896 -475.15584648 194.33614141 -482.1640625 191.890625 C-490.21705417 187.6567253 -495.31918948 180.21617021 -498.02734375 171.6640625 C-498.52695752 169.86910545 -499.01000921 168.06945779 -499.4765625 166.265625 C-499.72728516 165.36328125 -499.97800781 164.4609375 -500.23632812 163.53125 C-502.84643021 153.93055279 -503.99176893 146.34518064 -500.1640625 136.890625 C-494.82251958 128.07263848 -486.71882482 124.11159691 -477.67236328 120.0390625 C-474.88504962 118.76287762 -472.13217937 117.42615203 -469.37890625 116.078125 C-452.40616902 107.7810857 -435.17748907 100.14966406 -417.70703125 92.96484375 C-415.01871673 91.82922702 -412.37410708 90.61808861 -409.7265625 89.390625 C-403.64481619 86.60170991 -397.42904413 84.23300095 -391.1640625 81.890625 C-389.26509888 81.180521 -387.36615664 80.47036011 -385.46728516 79.76000977 C-384.12607555 79.25849541 -382.78459841 78.75769601 -381.44287109 78.25756836 C-377.93429387 76.94568358 -374.43658785 75.61167024 -370.953125 74.234375 C-360.60333038 70.14294985 -350.16389206 66.39580427 -339.63671875 62.78515625 C-335.86272565 61.48960133 -332.10927617 60.14781481 -328.36328125 58.7734375 C-324.57440263 57.38804992 -320.78319079 56.10012068 -316.9140625 54.953125 C-312.21645877 53.53498048 -307.56131538 52.02846496 -302.9140625 50.453125 C-296.22317103 48.1954993 -289.47669091 46.17733065 -282.6953125 44.2109375 C-277.77851715 42.78480716 -272.87789296 41.30636293 -267.9765625 39.828125 C-257.4215575 36.65345227 -246.86794054 33.53050244 -236.1640625 30.890625 C-219.94595112 26.88435414 -219.94595112 26.88435414 -203.7890625 22.640625 C-199.17065904 21.39268431 -194.57994249 20.32919165 -189.87890625 19.453125 C-186.31877 18.71548526 -182.80882596 17.79757304 -179.2890625 16.890625 C-173.67408795 15.45319151 -168.10832766 14.32145104 -162.375 13.4453125 C-158.51945293 12.77926909 -154.7238103 11.89966414 -150.9140625 11.015625 C-142.52292143 9.08263487 -134.07822511 7.63422122 -125.57519531 6.28564453 C-120.44573425 5.46682102 -115.3904175 4.52899638 -110.32885742 3.36376953 C-106.61156159 2.55130541 -102.86107514 1.9702526 -99.1015625 1.390625 C-98.26995605 1.26099365 -97.43834961 1.1313623 -96.58154297 0.99780273 C-90.36549353 0.04299567 -84.13927788 -0.76635782 -77.89453125 -1.51171875 C-74.09826807 -1.97727428 -70.31337114 -2.50840539 -66.52734375 -3.05078125 C-12.23696428 -10.8267565 -12.23696428 -10.8267565 0 0 Z " fill="#FEFBFA" transform="translate(967.1640625,520.109375)"/>
<path d="M0 0 C1.13421392 0.90524116 2.25892594 1.8224864 3.375 2.75 C4.1690625 3.3378125 4.963125 3.925625 5.78125 4.53125 C17.17551507 14.27815145 25.39489102 31.0709979 27.16015625 45.84765625 C27.26650391 47.28431641 27.26650391 47.28431641 27.375 48.75 C27.45621094 49.73871094 27.53742188 50.72742188 27.62109375 51.74609375 C28.37350344 70.00912904 22.21222456 86.88448696 10.375 100.75 C8 103.3125 8 103.3125 5.375 105.75 C4.47974609 106.58337891 4.47974609 106.58337891 3.56640625 107.43359375 C-4.69939695 114.92598846 -13.06396552 119.12798457 -23.625 122.75 C-24.67945313 123.11738281 -25.73390625 123.48476563 -26.8203125 123.86328125 C-45.10571521 128.12486895 -63.11181043 124.20661445 -79.25 115.3125 C-95.27664057 105.20202978 -104.76356974 90.5447011 -110.625 72.75 C-110.955 71.76 -111.285 70.77 -111.625 69.75 C-111.91645359 65.29658913 -111.90303666 60.83685394 -111.9375 56.375 C-111.96650391 55.16199219 -111.99550781 53.94898438 -112.02539062 52.69921875 C-112.15678367 33.75840539 -104.27778007 18.59399441 -91.4375 5.1875 C-66.34590771 -19.86976727 -27.85565023 -20.6163287 0 0 Z " fill="#FEFBFA" transform="translate(619.625,294.25)"/>
<path d="M0 0 C2.50671743 1.95176643 4.90866186 3.96984912 7.28125 6.08203125 C7.91804687 6.64792969 8.55484375 7.21382813 9.2109375 7.796875 C21.04014593 18.96890518 28.70574223 34.0564712 29.37475586 50.36083984 C29.4148148 52.74795442 29.41781126 55.13213094 29.40625 57.51953125 C29.41011719 58.31423828 29.41398438 59.10894531 29.41796875 59.92773438 C29.38623146 79.43029638 21.48559646 94.82317101 8.28125 109.08203125 C2.56696429 114.08203125 2.56696429 114.08203125 -0.71875 114.08203125 C-0.71875 114.74203125 -0.71875 115.40203125 -0.71875 116.08203125 C-19.3983605 126.06187392 -38.37621984 131.09457224 -59.53125 125.39453125 C-61.6127551 124.67659895 -63.67855372 123.9100949 -65.71875 123.08203125 C-66.59144531 122.73140625 -67.46414063 122.38078125 -68.36328125 122.01953125 C-79.16897585 117.11868078 -88.45964089 109.40115781 -95.71875 100.08203125 C-96.24984375 99.40914063 -96.7809375 98.73625 -97.328125 98.04296875 C-108.1917029 83.09154967 -111.57777446 64.47059579 -109.04956055 46.40454102 C-106.02105008 28.00326672 -96.37249966 12.7213835 -81.90625 1.14453125 C-75.59868488 -3.30834827 -68.95097682 -6.28192346 -61.71875 -8.91796875 C-60.8628125 -9.25828125 -60.006875 -9.59859375 -59.125 -9.94921875 C-39.8629135 -16.5324635 -16.2538976 -11.46647086 0 0 Z " fill="#FEFBFA" transform="translate(888.71875,291.91796875)"/>
<path d="M0 0 C3.92297846 0.56340648 6.49080356 1.70090379 9.75 3.9375 C10.52859375 4.46214844 11.3071875 4.98679687 12.109375 5.52734375 C14 7 14 7 15 9 C16.98077953 10.03755118 18.98529902 11.02995879 21 12 C22.11375 12.680625 23.2275 13.36125 24.375 14.0625 C26.96519071 15.57632257 29.32864139 16.44548985 32.25 17.125 C36 18 36 18 39 20 C49.44348491 22.18087925 60.03753538 22.2857108 70.66266632 22.24888897 C72.29818816 22.25067597 73.93370923 22.2533395 75.56922841 22.25678983 C80.04046024 22.2637087 84.51160252 22.2582781 88.98283014 22.25073375 C93.85587027 22.24473488 98.72889955 22.25040089 103.60193968 22.25455457 C112.1348076 22.26022913 120.66764888 22.25849873 129.20051575 22.2518692 C141.88886893 22.24203833 154.57720267 22.24368733 167.26555813 22.2476195 C188.6130831 22.25389093 209.96059701 22.25072734 231.30812073 22.24202538 C252.44658002 22.23341045 273.58503435 22.22850523 294.72349548 22.22869301 C296.03847796 22.22870065 297.35346043 22.2287083 298.70829086 22.22871618 C304.04612238 22.22875709 309.3839539 22.22881998 314.72178542 22.22892199 C329.64189333 22.22919958 344.56200118 22.22881097 359.48210907 22.22793293 C360.16147271 22.22789326 360.84083636 22.22785359 361.54078678 22.22781271 C383.1815728 22.22650517 404.82235726 22.22233529 426.4631424 22.21607494 C427.16485095 22.215872 427.86655951 22.21566907 428.58953196 22.21545998 C439.98448828 22.21215134 451.37944454 22.20865599 462.7744008 22.20515126 C507.98697148 22.19125668 553.19953655 22.18461844 598.41210938 22.18530273 C599.84180511 22.18532312 601.27150085 22.18534334 602.70119659 22.18536337 C605.55719959 22.18540356 608.4132026 22.18544433 611.26920561 22.18548548 C617.67290824 22.1855769 624.07661087 22.18566125 630.4803135 22.18573207 C631.89862608 22.18574784 633.31693867 22.18576428 634.73525126 22.1857814 C672.613544 22.18622655 710.49183598 22.18176016 748.37012815 22.17542917 C749.36185373 22.17526391 749.36185373 22.17526391 750.37361417 22.17509531 C756.35598885 22.17409821 762.33836352 22.17309982 768.32073819 22.17207072 C786.82697321 22.16890874 805.3332077 22.1674012 823.83944298 22.16695923 C847.67946076 22.16636275 871.5194741 22.16238041 895.35948998 22.15252777 C907.9733918 22.14740492 920.5872871 22.14500602 933.20118991 22.14652396 C941.61766697 22.14725659 950.03413767 22.14436814 958.45061269 22.13848015 C963.25171805 22.13522034 968.05280972 22.1335542 972.85391575 22.13624074 C977.21835763 22.13864757 981.58277208 22.13648555 985.94721046 22.13062263 C987.51923619 22.12931864 989.09126442 22.12969918 990.6632891 22.13193924 C992.79437343 22.13473223 994.92536413 22.13137873 997.05644274 22.12649983 C998.23744752 22.12620833 999.41845231 22.12591683 1000.63524511 22.1256165 C1004.15072815 21.99437286 1007.52381726 21.52477018 1011 21 C1013.4784122 20.93539071 1015.95835823 20.91388913 1018.4375 20.9375 C1020.29181641 20.95103516 1020.29181641 20.95103516 1022.18359375 20.96484375 C1023.57771484 20.98224609 1023.57771484 20.98224609 1025 21 C1016.05562492 29.94437508 993.22527074 27.10567773 981.2463362 27.12511951 C978.00770452 27.12439195 974.76909868 27.11899723 971.5304718 27.11352539 C969.1618359 27.11324499 966.79319991 27.11340911 964.42456406 27.11397648 C958.62105968 27.11424008 952.81757188 27.1098809 947.01407125 27.10354589 C940.05147185 27.09621974 933.08887434 27.0948069 926.12627162 27.09362289 C913.25619341 27.09129154 900.38612142 27.08444545 887.51604652 27.07516479 C869.85018941 27.06248951 852.18433433 27.05650144 834.51847341 27.05223143 C826.25380972 27.05022518 817.98914612 27.04789723 809.72448254 27.04548645 C808.89691115 27.04524544 808.06933977 27.04500442 807.21669046 27.04475611 C787.52067998 27.03894572 767.82467112 27.02999555 748.12866211 27.02050781 C747.26746258 27.02009417 746.40626304 27.01968052 745.51896655 27.01925434 C729.84991394 27.01172298 714.18086145 27.00394108 698.51180898 26.99609594 C687.31117673 26.99048898 676.11054444 26.98494618 664.90991211 26.97949219 C664.06091601 26.9790776 663.21191991 26.97866301 662.33719665 26.97823586 C642.8276612 26.96872643 623.31812596 26.96018133 603.80858898 26.95451355 C602.56611169 26.95415206 602.56611169 26.95415206 601.29853385 26.95378327 C593.00892529 26.95139277 584.71931669 26.94916533 576.42970802 26.94717702 C559.6126997 26.94311038 542.79569757 26.93703653 525.97869301 26.92483521 C508.01615069 26.91192293 490.0536117 26.903203 472.09106445 26.90234375 C471.37997735 26.90229925 470.66889025 26.90225474 469.93625505 26.90220889 C428.75911626 26.90037889 387.59003773 27.12498875 346.41598225 27.6482439 C342.86844628 27.69314827 339.32090642 27.73772258 335.77336121 27.78189087 C334.49546558 27.79781366 334.49546558 27.79781366 333.19175387 27.81405812 C306.84821439 28.13747056 280.50641756 28.07410055 254.16151428 27.96532798 C249.99663932 27.94835795 245.83175721 27.93419517 241.66687012 27.92057228 C240.95565522 27.91823888 240.24444032 27.91590547 239.51167345 27.91350136 C238.06378937 27.90875274 236.61590529 27.90400568 235.1680212 27.89926014 C221.96968526 27.85566444 208.77139302 27.80380215 195.57310009 27.74887029 C183.55287093 27.69911587 171.53263328 27.66052162 159.51234984 27.62663569 C146.96620991 27.59116764 134.42011376 27.54845624 121.87402534 27.49788028 C114.90871853 27.46992452 107.94343013 27.44469552 100.97808838 27.4272213 C94.50249982 27.41089302 88.02700262 27.38433886 81.55147934 27.35091019 C79.18922059 27.3402795 76.82694422 27.33295021 74.46466446 27.32924461 C60.35901902 27.3047994 47.03809578 27.26028089 33.625 22.375 C32.90876465 22.11557617 32.1925293 21.85615234 31.45458984 21.58886719 C19.30880324 17.0103226 8.98635523 10.40816374 0 1 C0 0.67 0 0.34 0 0 Z " fill="#BF3F38" transform="translate(190,804)"/>
<path d="M0 0 C6.58703606 0.0332758 13.1740817 0.06209645 19.76114623 0.08908507 C27.67681711 0.1217746 35.5924101 0.1618663 43.50799313 0.2115703 C47.52428955 0.23671577 51.54054253 0.25905254 55.556894 0.27322483 C59.2367865 0.28639186 62.91650842 0.30878009 66.59630508 0.33829252 C68.54038098 0.35165821 70.48451449 0.3556585 72.42863308 0.35921549 C80.01252903 0.43194758 87.19964843 1.18565977 94.63808946 2.67247363 C94.63808946 3.00247363 94.63808946 3.33247363 94.63808946 3.67247363 C-223.48191054 3.34247363 -541.60191054 3.01247363 -869.36191054 2.67247363 C-869.36191054 2.34247363 -869.36191054 2.01247363 -869.36191054 1.67247363 C-865.83092132 0.86933171 -862.57258844 0.54582667 -858.95438482 0.54071244 C-857.87294147 0.53677551 -856.79149812 0.53283857 -855.67728376 0.52878233 C-853.90001285 0.52988756 -853.90001285 0.52988756 -852.08683749 0.53101512 C-850.18678123 0.5263024 -850.18678123 0.5263024 -848.24834 0.52149447 C-844.71790591 0.51288215 -841.18749037 0.51048414 -837.65704706 0.50906687 C-833.81878577 0.50643897 -829.98053637 0.49806853 -826.14228239 0.49042448 C-819.4058871 0.47781145 -812.66949475 0.46891802 -805.93309089 0.4624345 C-795.90716269 0.45277587 -785.88124874 0.43745646 -775.85532966 0.42102242 C-757.90399179 0.39179615 -739.95264977 0.36833505 -722.00130061 0.34731666 C-706.18808234 0.32879664 -690.37486759 0.30850852 -674.56165381 0.28647586 C-672.43367873 0.28351756 -670.30570364 0.28055938 -668.17772855 0.27760133 C-664.96912807 0.27313822 -661.7605276 0.26867308 -658.55192713 0.26420274 C-628.6461758 0.22257292 -598.74042235 0.18290931 -568.83466311 0.14737865 C-567.70509793 0.14603659 -566.57553274 0.14469452 -565.4117383 0.14331179 C-556.2427753 0.13243068 -547.07381223 0.12160742 -537.90484915 0.11078761 C-502.56394883 0.0690434 -467.22306045 0.0216564 -431.88217422 -0.03065137 C-391.98552474 -0.08968695 -352.08887253 -0.1444478 -312.19220915 -0.19325224 C-307.8753956 -0.19854491 -303.55858208 -0.2038493 -299.24176856 -0.20916012 C-298.17925505 -0.2104642 -297.11674154 -0.21176827 -296.02203065 -0.21311186 C-281.39123583 -0.23113814 -266.76044629 -0.2515658 -252.12965754 -0.27396646 C-168.08566546 -0.40238787 -84.04326334 -0.42826752 0 0 Z " fill="#4A1410" transform="translate(1109.3619105431717,80.32752636587247)"/>
<path d="M0 0 C316.8 0 633.6 0 960 0 C960 0.33 960 0.66 960 1 C947.17344815 2.12151802 934.39756594 2.13526506 921.5304718 2.11352539 C919.1618359 2.11324499 916.79319991 2.11340911 914.42456406 2.11397648 C908.62105968 2.11424008 902.81757188 2.1098809 897.01407125 2.10354589 C890.05147185 2.09621974 883.08887434 2.0948069 876.12627162 2.09362289 C863.25619341 2.09129154 850.38612142 2.08444545 837.51604652 2.07516479 C819.85018941 2.06248951 802.18433433 2.05650144 784.51847341 2.05223143 C776.25380972 2.05022518 767.98914612 2.04789723 759.72448254 2.04548645 C758.89691115 2.04524544 758.06933977 2.04500442 757.21669046 2.04475611 C737.52067998 2.03894572 717.82467112 2.02999555 698.12866211 2.02050781 C697.26746258 2.02009417 696.40626304 2.01968052 695.51896655 2.01925434 C679.84991394 2.01172298 664.18086145 2.00394108 648.51180898 1.99609594 C637.31117673 1.99048898 626.11054444 1.98494618 614.90991211 1.97949219 C614.06091601 1.9790776 613.21191991 1.97866301 612.33719665 1.97823586 C592.8276612 1.96872643 573.31812596 1.96018133 553.80858898 1.95451355 C552.56611169 1.95415206 552.56611169 1.95415206 551.29853385 1.95378327 C543.00892529 1.95139277 534.71931669 1.94916533 526.42970802 1.94717702 C509.6126997 1.94311038 492.79569757 1.93703653 475.97869301 1.92483521 C458.01615069 1.91192294 440.0536117 1.90320299 422.09106445 1.90234375 C421.37995872 1.90229925 420.66885299 1.90225474 419.93619859 1.90220889 C378.76550696 1.90037923 337.60288486 2.12503409 296.43527699 2.6482439 C292.88725026 2.69315391 289.33921958 2.73772835 285.79118347 2.78189087 C284.93896059 2.79250606 284.0867377 2.80312125 283.20868988 2.81405812 C256.77171427 3.13846949 230.33640304 3.07396657 203.89806175 2.96532798 C199.71716818 2.94836968 195.53626753 2.93420212 191.35536194 2.92057228 C190.64183726 2.91823888 189.92831257 2.91590547 189.19316593 2.91350136 C187.740756 2.90875292 186.28834607 2.90400586 184.83593613 2.89926014 C171.5996912 2.8556721 158.36348994 2.80380167 145.12728792 2.74887029 C133.04992211 2.69902644 120.97254777 2.66047903 108.89512748 2.62663569 C96.30382534 2.59125106 83.7125675 2.54857258 71.12131739 2.49788028 C64.12496636 2.46983979 57.12863427 2.44462405 50.13224792 2.4272213 C43.63698401 2.41098301 37.14181916 2.38450288 30.64661789 2.35091019 C28.26809856 2.34021626 25.88956118 2.33292774 23.51102066 2.32924461 C20.27671805 2.32370814 17.04270649 2.30604299 13.80847168 2.28520203 C12.39093857 2.28708095 12.39093857 2.28708095 10.94476843 2.28899783 C10.08089089 2.28091564 9.21701335 2.27283345 8.3269577 2.26450634 C7.21020133 2.26027575 7.21020133 2.26027575 6.07088423 2.25595969 C4 2 4 2 0 0 Z " fill="#531815" transform="translate(240,829)"/>
<path d="M0 0 C0.33 0 0.66 0 1 0 C1.81286607 3.56577599 2.12845569 6.86067424 2.1386652 10.5149107 C2.14687681 12.17092723 2.14687681 12.17092723 2.1552543 13.86039865 C2.15623245 15.06909573 2.1572106 16.2777928 2.15821838 17.52311707 C2.16315672 18.81293507 2.16809505 20.10275308 2.17318302 21.43165648 C2.18676735 25.01750749 2.19418758 28.603349 2.20061019 32.18921901 C2.20863042 36.0703618 2.22232635 39.95148514 2.23530388 43.83261395 C2.25998345 51.4845 2.27935721 59.13639104 2.29704247 66.7882961 C2.31815169 75.82518513 2.34474744 84.86205573 2.3714836 93.89892957 C2.42567613 112.29650702 2.47298442 130.69409817 2.51790267 149.09170032 C2.55219127 163.12513346 2.58835192 177.15856068 2.62567139 191.19198608 C3.09791048 369.21398142 3.09791048 369.21398142 3.12211341 454.91985768 C3.12372789 460.45976604 3.12664389 465.99967137 3.13082498 471.53957838 C3.15428192 502.84133134 3.16813649 534.14328474 2.67306137 565.44197655 C2.63653662 567.75508924 2.60250843 570.06824306 2.57129288 572.38143349 C2.52720806 575.50088932 2.47061701 578.61984729 2.40966797 581.73901367 C2.39850826 582.62582762 2.38734856 583.51264156 2.37585068 584.42632866 C2.16044424 593.74964677 0.57722256 602.38214565 -3 611 C-4.17919711 607.46240867 -3.73115415 606.75775675 -2.58742046 603.31684494 C0.09540243 593.069331 -0.57777611 582.4478616 -0.60127258 571.93048096 C-0.59583013 569.46174014 -0.58907732 566.99300193 -0.58113068 564.52426791 C-0.5668777 559.16740784 -0.56183152 553.81065822 -0.56500816 548.45378876 C-0.56968119 540.48843656 -0.55715378 532.52317519 -0.54117843 524.55784093 C-0.5147844 511.15671809 -0.50222589 497.75561592 -0.49761391 484.3544693 C-0.49300352 471.0899648 -0.48220614 457.82548898 -0.46318626 444.56099701 C-0.46200614 443.7355592 -0.46082601 442.9101214 -0.45961012 442.05967033 C-0.45358451 437.86751093 -0.44744876 433.67535171 -0.44127061 429.48319253 C-0.39773436 399.80748749 -0.3680089 370.13178314 -0.34643555 340.45605469 C-0.32544859 311.63052338 -0.29818712 282.80500914 -0.26245117 253.97949219 C-0.26135169 253.09061318 -0.26025222 252.20173417 -0.25911942 251.28591943 C-0.24807087 242.35924837 -0.23689498 233.43257747 -0.2256258 224.50590668 C-0.20267307 206.32203357 -0.18057016 188.13815945 -0.15898132 169.95428467 C-0.1579877 169.11826075 -0.15699409 168.28223683 -0.15597036 167.42087885 C-0.08974089 111.61393312 -0.04338247 55.80696759 0 0 Z " fill="#4E0908" transform="translate(1276,158)"/>
<path d="M0 0 C0.66 0 1.32 0 2 0 C12.91210407 13.01926899 19.33119104 30.45106099 19.25726891 47.32014275 C19.26077498 48.33869335 19.26428105 49.35724395 19.26789337 50.40665972 C19.27720559 53.82355964 19.27228441 57.24028905 19.26742554 60.65719604 C19.2711619 63.13027845 19.27576336 65.60335967 19.28115618 68.07643902 C19.29084537 73.455647 19.29430087 78.83480543 19.29224396 84.21401787 C19.28919255 92.21363536 19.2975212 100.21321307 19.30799321 108.21282283 C19.32733462 123.33395164 19.33296154 138.45506689 19.33410732 153.57620661 C19.33502665 165.2573103 19.3391446 176.93840868 19.34550858 188.61951065 C19.3473037 191.98282309 19.34908333 195.34613553 19.35085833 198.70944798 C19.35130043 199.5456084 19.35174252 200.38176881 19.35219802 201.24326742 C19.36450701 224.76432456 19.37239911 248.28537985 19.37151146 271.80644035 C19.3714803 272.69325731 19.37144914 273.58007426 19.37141704 274.49376446 C19.37125083 278.98842064 19.37105275 283.48307682 19.37084763 287.977733 C19.37078779 289.3166877 19.37078779 289.3166877 19.37072675 290.682692 C19.37064587 292.48782263 19.37056228 294.29295327 19.37047596 296.09808391 C19.36925112 324.16762355 19.38425107 352.23711482 19.41162109 380.30664062 C19.44236783 411.85208694 19.45955194 443.39750148 19.45769465 474.94296372 C19.45754539 478.30941971 19.45744798 481.6758757 19.45738602 485.0423317 C19.45736271 485.87121952 19.4573394 486.70010734 19.45731538 487.55411297 C19.45725393 500.87278571 19.47000679 514.19141636 19.48725055 527.51007659 C19.50423641 540.90711166 19.50615789 554.30408541 19.4930319 567.70112531 C19.48566167 575.6514405 19.48924266 583.60156893 19.50891658 591.55186418 C19.5223909 597.50174816 19.51475305 603.45148761 19.49917014 609.4013703 C19.49610565 611.79847582 19.49971165 614.19560177 19.51089029 616.59268318 C19.5842064 633.43803238 18.91592731 649.73356876 11 665 C9.59257978 662.18515955 10.33347836 660.43063887 10.9375 657.375 C11.13214844 656.37210938 11.32679687 655.36921875 11.52734375 654.3359375 C11.76130859 653.17964844 11.76130859 653.17964844 12 652 C12.66 652 13.32 652 14 652 C15.60746506 637.35336535 16.39652212 622.83962788 16.61592102 608.11051941 C16.65373493 605.9274536 16.69170763 603.74439053 16.72982627 601.56133002 C17.12354308 577.70358544 17.15017512 553.84467221 17.14538372 529.98428977 C17.14519654 524.13321107 17.14973669 518.28213681 17.1539966 512.43105993 C17.16351697 499.05619819 17.16647464 485.68134036 17.16705366 472.30647562 C17.16751734 461.99070037 17.16959676 451.6749266 17.17275429 441.35915184 C17.17365202 438.36563577 17.17454185 435.37211971 17.17542917 432.37860364 C17.17565021 431.63407108 17.17587126 430.88953852 17.17609901 430.12244437 C17.1822234 409.28127985 17.18620245 388.44011584 17.18575573 367.59895039 C17.18574015 366.81831461 17.18572457 366.03767883 17.18570852 365.23338742 C17.18562544 361.2785941 17.1855264 357.32380077 17.18542381 353.36900745 C17.18540387 352.58382716 17.18538392 351.79864687 17.18536337 350.98967324 C17.18532294 349.40187913 17.18528114 347.81408501 17.18523798 346.2262909 C17.18462252 321.41265491 17.19219376 296.5990325 17.20581055 271.78540039 C17.22116268 243.79918767 17.22977789 215.81298387 17.22884732 187.82676667 C17.2287727 184.84676786 17.22872399 181.86676906 17.22869301 178.88677025 C17.22867553 177.78641273 17.22867553 177.78641273 17.22865769 176.66382577 C17.22862695 164.87208797 17.23500391 153.08036203 17.24362527 141.28862776 C17.25208894 129.46969325 17.252929 117.65077759 17.24651595 105.83184168 C17.24324236 99.43279426 17.24322508 93.03378993 17.2518692 86.63474655 C17.25969454 80.78222754 17.25834378 74.92978612 17.24958507 69.0772691 C17.24804167 66.9575222 17.24989761 64.83776962 17.25544515 62.71802942 C17.26247384 59.84278483 17.25723642 56.96781492 17.24888897 54.09257984 C17.25385715 53.26533215 17.25882533 52.43808447 17.26394406 51.58576867 C17.23397083 46.72001221 16.53873709 42.66727351 15 38 C14.24290924 34.86185881 13.50742151 31.71964641 12.78125 28.57421875 C12.18013748 25.86595022 12.18013748 25.86595022 10 24 C10 22.68 10 21.36 10 20 C9.34 20 8.68 20 8 20 C7.76216797 19.19949219 7.76216797 19.19949219 7.51953125 18.3828125 C5.81862111 12.9511768 3.62599321 8.01074808 0.98828125 2.96875 C0 1 0 1 0 0 Z " fill="#C13833" transform="translate(1257,116)"/>
<path d="M0 0 C1.11320222 3.33960665 0.6362172 4.78159833 -0.30916503 8.06995016 C-3.71992815 20.07475772 -3.55945848 31.89462187 -3.50793457 44.28392029 C-3.51255048 46.71527496 -3.51890801 49.14662684 -3.52684355 51.57797295 C-3.54000621 56.83815247 -3.54090955 62.09818241 -3.53065491 67.3583622 C-3.51544702 75.18082081 -3.52330011 83.00314202 -3.53548814 90.82559988 C-3.55649491 104.80141482 -3.55474795 118.77715639 -3.54317249 132.75297822 C-3.53309214 144.98440057 -3.53049188 157.2157961 -3.53526306 169.44722176 C-3.5355686 170.25999919 -3.53587414 171.07277662 -3.53618894 171.91018368 C-3.53743439 175.20990098 -3.538708 178.50961827 -3.540028 181.80933554 C-3.55225189 212.73557925 -3.54118959 243.66177635 -3.51964041 274.58801286 C-3.50066113 302.03469305 -3.50235639 329.48129898 -3.52148438 356.92797852 C-3.54292632 387.79779465 -3.55138303 418.66756965 -3.53903532 449.5373922 C-3.53775254 452.83124895 -3.53650118 456.12510571 -3.53526306 459.41896248 C-3.53494675 460.22993399 -3.53463044 461.0409055 -3.53430455 461.87645191 C-3.52976414 474.09633589 -3.53505807 486.31619003 -3.54518127 498.53606987 C-3.55664109 512.43831378 -3.55371068 526.34047315 -3.5320583 540.24270659 C-3.52035369 548.01309713 -3.51948735 555.78330438 -3.534643 563.55368999 C-3.54473018 569.36928868 -3.53371035 575.18469994 -3.5147447 581.00026942 C-3.51029992 583.34259343 -3.51249666 585.68494217 -3.52224785 588.0272501 C-3.5854566 604.48078322 -3.0563229 621.18854724 5 636 C5.48855469 636.94746094 5.97710937 637.89492188 6.48046875 638.87109375 C8.69508141 643.07612371 10.62349855 646.65219403 14 650 C14.33 650.99 14.66 651.98 15 653 C15.99 653.33 16.98 653.66 18 654 C18.495 656.475 18.495 656.475 19 659 C19.66 659 20.32 659 21 659 C21 660.32 21 661.64 21 663 C20.34 663 19.68 663 19 663 C16.096914 659.86333237 13.58613363 656.39959021 11 653 C10.39414063 652.24332031 9.78828125 651.48664062 9.1640625 650.70703125 C0.10436356 638.79824147 -5.3221841 623.67296356 -5.25726891 608.77890778 C-5.26077498 607.75892385 -5.26428105 606.73893993 -5.26789337 605.68804741 C-5.27721872 602.2602799 -5.27228103 598.83268186 -5.26742554 595.40490723 C-5.27116123 592.926425 -5.27576243 590.44794395 -5.28115618 587.96946478 C-5.29085077 582.57544067 -5.29429977 577.181466 -5.29224396 571.78743744 C-5.28919422 563.76593306 -5.29751746 555.7444684 -5.30799321 547.72297174 C-5.32734009 532.5614786 -5.33296173 517.39999897 -5.33410732 502.23849493 C-5.33502639 490.52778395 -5.33914299 478.81707828 -5.34550858 467.10636902 C-5.34730368 463.73544487 -5.3490833 460.36452071 -5.35085833 456.99359655 C-5.35130043 456.15556521 -5.35174252 455.31753387 -5.35219802 454.45410764 C-5.36450776 430.87910663 -5.37239903 407.30410746 -5.37151146 383.72910309 C-5.3714803 382.8401616 -5.37144914 381.95122011 -5.37141704 381.03534101 C-5.37125083 376.52983356 -5.37105275 372.02432612 -5.37084763 367.51881868 C-5.37080774 366.62401334 -5.37076785 365.729208 -5.37072675 364.80728734 C-5.37064587 362.99777115 -5.37056228 361.18825495 -5.37047596 359.37873875 C-5.36925089 331.23554475 -5.38425513 303.09239896 -5.41162109 274.94921875 C-5.44235675 243.32763193 -5.45955263 211.70607679 -5.45769465 180.08447409 C-5.45754539 176.71103509 -5.45744798 173.3375961 -5.45738602 169.9641571 C-5.45736271 169.13353736 -5.4573394 168.30291762 -5.45731538 167.44712758 C-5.45725389 154.09154399 -5.47001524 140.73600231 -5.48725055 127.38043117 C-5.50422256 113.95083997 -5.50616866 100.52130996 -5.4930319 87.09171396 C-5.48565268 79.11855549 -5.48926977 71.14558314 -5.50891658 63.17244447 C-5.52236237 57.21082051 -5.51477758 51.24941473 -5.49917014 45.28778809 C-5.49609887 42.88195781 -5.49973733 40.47610727 -5.51089029 38.07030088 C-5.62693989 11.25387979 -5.62693989 11.25387979 0 0 Z " fill="#C03834" transform="translate(169,141)"/>
<path d="M0 0 C3.92297846 0.56340648 6.49080356 1.70090379 9.75 3.9375 C10.52859375 4.46214844 11.3071875 4.98679687 12.109375 5.52734375 C14 7 14 7 15 9 C16.98077953 10.03755118 18.98529902 11.02995879 21 12 C22.11375 12.680625 23.2275 13.36125 24.375 14.0625 C26.96519071 15.57632257 29.32864139 16.44548985 32.25 17.125 C36 18 36 18 39 20 C52.59947482 23.32005944 67.22577739 22.31081549 81.10388124 22.31667423 C84.77443191 22.32040549 88.44493875 22.33557891 92.11546326 22.34928894 C98.45854662 22.37144985 104.80161415 22.38652989 111.14472771 22.39665604 C120.31554398 22.41130678 129.48630504 22.43686107 138.6570887 22.46498732 C153.53985109 22.51033978 168.42262147 22.54700204 183.30541992 22.578125 C197.75367638 22.60835803 212.20191332 22.64272996 226.65014648 22.68261719 C227.98838322 22.68630951 227.98838322 22.68630951 229.35365503 22.69007643 C233.82981708 22.70245195 238.3059789 22.7149083 242.78214061 22.72740483 C279.85473344 22.83079955 316.92734955 22.92005958 354 23 C354 23.33 354 23.66 354 24 C314.54258304 24.26522894 275.08509495 24.49829012 235.62724227 24.68857425 C230.96251259 24.71109714 226.29778423 24.73388471 221.63305664 24.75683594 C220.70444411 24.76140041 219.77583158 24.76596489 218.81907927 24.77066769 C203.80869367 24.84507962 188.79851795 24.94090223 173.78831024 25.04472218 C158.37155009 25.15087432 142.95478924 25.23382114 127.53778642 25.29549801 C118.03455473 25.33423964 108.53177949 25.39079891 99.02880239 25.47059424 C92.50074094 25.52367067 85.97281147 25.55408368 79.44454855 25.56717806 C75.68525023 25.57537211 71.92667718 25.59307283 68.16762161 25.63785744 C41.96529224 25.93855369 21.52124402 21.50924327 1.9140625 3.00390625 C0 1 0 1 0 0 Z " fill="#C9352E" transform="translate(190,804)"/>
<path d="M0 0 C0.33 0 0.66 0 1 0 C1.09144319 31.5421093 1.16213784 63.08418056 1.20426132 94.62639164 C1.20926356 98.35851261 1.2144409 102.09063332 1.21972656 105.82275391 C1.2207758 106.56568601 1.22182505 107.30861812 1.22290608 108.07406332 C1.24026495 120.07028384 1.27177743 132.06642693 1.30861118 144.06260167 C1.34614692 156.39111905 1.3682624 168.71959614 1.37635398 181.0481683 C1.38181571 188.64266229 1.39900366 196.2369373 1.43166587 203.83136381 C1.4555051 209.67550895 1.45778825 215.51951685 1.45243073 221.36370087 C1.45352315 223.74596369 1.4613715 226.12823549 1.4768219 228.51044846 C1.58086822 245.39360037 0.93449431 261.69776096 -7 277 C-8.40742022 274.18515955 -7.66652164 272.43063887 -7.0625 269.375 C-6.86785156 268.37210938 -6.67320313 267.36921875 -6.47265625 266.3359375 C-6.23869141 265.17964844 -6.23869141 265.17964844 -6 264 C-5.34 264 -4.68 264 -4 264 C-2.52983546 250.28617942 -1.62211139 236.70246076 -1.41015625 222.9140625 C-1.38327571 221.41124662 -1.38327571 221.41124662 -1.35585213 219.87807083 C-0.66595688 181.07179096 -0.65422898 142.25097344 -0.48258936 103.43990064 C-0.43244249 92.13311833 -0.37781572 80.82635881 -0.32291877 69.51959872 C-0.21050264 46.34642041 -0.10338357 23.17322025 0 0 Z " fill="#C23834" transform="translate(1275,504)"/>
<path d="M0 0 C-1.32 0.33 -2.64 0.66 -4 1 C-4.33 2.32 -4.66 3.64 -5 5 C-5.721875 5.061875 -6.44375 5.12375 -7.1875 5.1875 C-10.92541556 6.26734227 -12.3079137 8.18554614 -15 11 C-16.3415873 12.03730977 -17.69731718 13.05644636 -19.0625 14.0625 C-23.10868684 17.15145137 -26.7218744 20.5299748 -30.3125 24.125 C-30.81595947 24.62781494 -31.31941895 25.13062988 -31.83813477 25.64868164 C-34.12162258 27.96571092 -36.2316769 30.29781233 -38.23046875 32.8671875 C-38.81441406 33.57101563 -39.39835938 34.27484375 -40 35 C-40.66 35 -41.32 35 -42 35 C-42 35.99 -42 36.98 -42 38 C-42.9590625 38.1546875 -42.9590625 38.1546875 -43.9375 38.3125 C-44.9584375 38.6528125 -44.9584375 38.6528125 -46 39 C-46.33 39.99 -46.66 40.98 -47 42 C-47.33 41.34 -47.66 40.68 -48 40 C-42.66006783 28.13606375 -33.33847199 18.57947947 -23 11 C-22.08863281 10.29746094 -21.17726562 9.59492187 -20.23828125 8.87109375 C-5.91919757 -1.97306586 -5.91919757 -1.97306586 0 0 Z " fill="#A4322D" transform="translate(221,89)"/>
<path d="M0 0 C-9.06502506 3.2710647 -18.08755254 5.02845941 -27.59985352 6.42871094 C-33.35620163 7.33031357 -38.31049674 8.78094085 -43.6628418 11.07275391 C-47.09483696 12.43436653 -50.42522003 13.04736833 -54.0625 13.6875 C-58.35536703 14.11020574 -58.35536703 14.11020574 -62 16 C-64.7692064 16.53670287 -67.54945085 16.9648874 -70.3359375 17.40234375 C-73.2077297 17.87912778 -73.2077297 17.87912778 -76 20 C-91.07203115 24.92147956 -91.07203115 24.92147956 -97 23 C-88.32455788 19.91876583 -79.72213209 17.30212247 -70.72485352 15.34472656 C-66.96609409 14.51732387 -63.55968665 13.43607296 -60 12 C-58.14634507 11.51372729 -56.29121799 11.03209241 -54.42773438 10.58496094 C-51.54316246 9.88992531 -48.67079151 9.15191344 -45.796875 8.4140625 C-34.73792246 5.59757374 -23.68009108 2.79880878 -12.5 0.5 C-11.28328613 0.24210693 -11.28328613 0.24210693 -10.04199219 -0.02099609 C-6.33603605 -0.75498352 -3.61248466 -1.09214652 0 0 Z " fill="#C34843" transform="translate(832,605)"/>
<path d="M0 0 C1.85431641 0.01353516 1.85431641 0.01353516 3.74609375 0.02734375 C5.14021484 0.04474609 5.14021484 0.04474609 6.5625 0.0625 C3.15391414 3.47108586 -1.75951465 3.99258394 -6.4375 4.1875 C-7.0975 4.14625 -7.7575 4.105 -8.4375 4.0625 C-7.1175 3.4025 -5.7975 2.7425 -4.4375 2.0625 C-5.49074463 2.22515854 -6.54398926 2.38781708 -7.62915039 2.55540466 C-13.5332032 3.28746472 -19.43038225 3.19388091 -25.37109375 3.17602539 C-26.64997971 3.17617142 -27.92886566 3.17631744 -29.24650574 3.1764679 C-32.73147233 3.17675329 -36.21640407 3.17089843 -39.70136261 3.16389394 C-43.35152507 3.15761728 -47.00168844 3.1570532 -50.65185547 3.15586853 C-57.55416872 3.15276788 -64.45646603 3.14457165 -71.35877228 3.13451904 C-79.22095836 3.12331847 -87.08314522 3.11783753 -94.9453373 3.11282361 C-111.10940085 3.10238791 -127.27344838 3.08481312 -143.4375 3.0625 C-143.4375 2.7325 -143.4375 2.4025 -143.4375 2.0625 C-142.77912108 2.05826806 -142.12074217 2.05403612 -141.44241238 2.04967594 C-125.40878483 1.94628722 -109.37520281 1.83763732 -93.34165096 1.72316074 C-85.58788971 1.66792667 -77.83412386 1.61446107 -70.08032227 1.56518555 C-63.32064408 1.52222318 -56.56099843 1.4759153 -49.80137068 1.42562145 C-46.22355253 1.39911731 -42.64574043 1.37426722 -39.06788445 1.35342598 C-35.06986587 1.3300745 -31.07193784 1.29925269 -27.07397461 1.26782227 C-25.89289627 1.2620668 -24.71181793 1.25631134 -23.49494934 1.25038147 C-15.59576518 1.17976937 -7.87464553 -0.07499662 0 0 Z " fill="#CB342C" transform="translate(1208.4375,824.9375)"/>
<path d="M0 0 C3.02138567 -0.08149592 6.04053905 -0.14073421 9.0625 -0.1875 C9.91005859 -0.21263672 10.75761719 -0.23777344 11.63085938 -0.26367188 C17.21231648 -0.32832196 21.09395128 0.26307555 26 3 C26.99 4.485 26.99 4.485 28 6 C27.1234375 5.68804688 26.246875 5.37609375 25.34375 5.0546875 C10.07624667 0.17517041 -5.59744299 2.59366428 -21.10546875 5.5 C-25.51958627 6.26249263 -29.96480535 6.74302515 -34.41455078 7.2434082 C-38.11699588 7.66019299 -41.81232266 8.10057506 -45.50390625 8.60546875 C-46.22739258 8.70279297 -46.95087891 8.80011719 -47.69628906 8.90039062 C-49.70052347 9.17230798 -51.7038103 9.45118318 -53.70703125 9.73046875 C-56.55172763 9.96330867 -58.34897419 9.94154821 -61 9 C-52.95073076 5.88415384 -45.56674915 5.66671149 -37 6 C-37 5.34 -37 4.68 -37 4 C-24.60826179 2.03695236 -12.5269852 1.76246965 0 2 C0 1.34 0 0.68 0 0 Z " fill="#C4443E" transform="translate(935,511)"/>
<path d="M0 0 C3.92297846 0.56340648 6.49080356 1.70090379 9.75 3.9375 C10.52859375 4.46214844 11.3071875 4.98679687 12.109375 5.52734375 C14 7 14 7 15 9 C16.98077953 10.03755118 18.98529902 11.02995879 21 12 C22.11375 12.680625 23.2275 13.36125 24.375 14.0625 C26.96519071 15.57632257 29.32864139 16.44548985 32.25 17.125 C36 18 36 18 39 20 C39.845625 20.165 40.69125 20.33 41.5625 20.5 C44 21 44 21 46 23 C47.31747324 23.69748583 48.64914193 24.36959957 50 25 C44.02597261 25.26729429 39.46410533 24.57255578 33.875 22.5 C33.14071777 22.23155273 32.40643555 21.96310547 31.64990234 21.68652344 C19.43934746 17.04719871 9.04843954 10.47316221 0 1 C0 0.67 0 0.34 0 0 Z " fill="#B03A35" transform="translate(190,804)"/>
<path d="M0 0 C0.90105469 0.00902344 1.80210937 0.01804687 2.73046875 0.02734375 C3.41753906 0.03894531 4.10460937 0.05054688 4.8125 0.0625 C2.03172343 1.91635105 0.57257229 2.50452145 -2.58203125 3.2109375 C-3.44763672 3.40937256 -4.31324219 3.60780762 -5.20507812 3.81225586 C-6.12740234 4.01858643 -7.04972656 4.22491699 -8 4.4375 C-16.48222223 6.39653728 -24.83676275 8.59863653 -33.1875 11.0625 C-35.7152712 11.78696373 -38.24453927 12.50605098 -40.77392578 13.22485352 C-48.12636282 15.31548468 -55.47519734 17.41930163 -62.8125 19.5625 C-63.8178479 19.8555603 -63.8178479 19.8555603 -64.84350586 20.15454102 C-68.70251396 21.29176332 -72.53552436 22.49159333 -76.359375 23.7421875 C-77.2261084 24.02384766 -78.0928418 24.30550781 -78.98583984 24.59570312 C-80.67109787 25.14627823 -82.35385934 25.70457009 -84.03369141 26.27148438 C-89.85577213 28.17307596 -89.85577213 28.17307596 -93.1875 27.0625 C-81.82386364 22.0625 -81.82386364 22.0625 -76.1875 22.0625 C-76.1875 21.4025 -76.1875 20.7425 -76.1875 20.0625 C-75.25808594 19.88074219 -74.32867188 19.69898438 -73.37109375 19.51171875 C-66.92621166 18.20123699 -61.22047919 16.69507274 -55.1875 14.0625 C-51.98546486 13.23948695 -48.76817399 12.52532613 -45.5390625 11.81640625 C-40.70783477 10.72966155 -35.95210596 9.40734846 -31.1875 8.0625 C-29.99125 7.7325 -28.795 7.4025 -27.5625 7.0625 C-24.14412428 6.04964793 -20.77552624 4.93012661 -17.3984375 3.7890625 C-14.35159465 2.78780319 -11.27567887 1.92719008 -8.1875 1.0625 C-5.17259443 0.05753148 -3.14568308 -0.04085303 0 0 Z " fill="#C1433E" transform="translate(750.1875,544.9375)"/>
<path d="M0 0 C0.28875 0.639375 0.5775 1.27875 0.875 1.9375 C1.82823451 4.15206079 1.82823451 4.15206079 4 5 C4.67578125 7.1171875 4.67578125 7.1171875 5.3125 9.875 C7.67137147 19.02599889 11.76589447 28.1029285 17 36 C17.66 36.33 18.32 36.66 19 37 C19.33 37.99 19.66 38.98 20 40 C21.485 40.495 21.485 40.495 23 41 C23.33 42.65 23.66 44.3 24 46 C24.66 46 25.32 46 26 46 C26 47.32 26 48.64 26 50 C25.34 50 24.68 50 24 50 C21.096914 46.86333237 18.58613363 43.39959021 16 40 C15.39414063 39.24332031 14.78828125 38.48664062 14.1640625 37.70703125 C6.66534299 27.85011714 -0.61248202 12.55588146 0 0 Z " fill="#6E1D19" transform="translate(164,754)"/>
<path d="M0 0 C0 0.33 0 0.66 0 1 C-1.17433594 1.18175781 -2.34867188 1.36351562 -3.55859375 1.55078125 C-14.39721307 3.23835337 -25.20733506 5.03971611 -36 7 C-37.07540039 7.19384277 -38.15080078 7.38768555 -39.25878906 7.58740234 C-42.88164042 8.24154208 -46.50342202 8.90134921 -50.125 9.5625 C-51.28773438 9.77245605 -52.45046875 9.98241211 -53.6484375 10.19873047 C-60.40998763 11.42562362 -60.40998763 11.42562362 -67.0546875 13.15234375 C-70 14 -70 14 -74 14 C-74 13.34 -74 12.68 -74 12 C-68.21772208 9.85178529 -62.56051539 9.24428915 -56.4609375 8.5625 C-53.39887813 8.06482895 -51.66717917 7.4190761 -49 6 C-46.7109375 5.62109375 -46.7109375 5.62109375 -44.375 5.4375 C-41.06333997 5.18115456 -41.06333997 5.18115456 -38 4 C-36.06491853 3.84191468 -34.12652909 3.72347548 -32.1875 3.625 C-27.42681831 3.30517447 -23.05645733 2.62571004 -18.4375 1.4375 C-12.20918395 -0.12717452 -6.39196492 -0.31096046 0 0 Z " fill="#C0453F" transform="translate(874,521)"/>
<path d="M0 0 C0.66 0 1.32 0 2 0 C10.70908343 10.39083747 19.87141038 28.05743389 19 42 C15.42358766 37.28563829 13.6267911 33.84567659 12.5625 28.05859375 C12.12724769 25.79676721 12.12724769 25.79676721 10 24 C10 22.68 10 21.36 10 20 C9.34 20 8.68 20 8 20 C7.76216797 19.19949219 7.76216797 19.19949219 7.51953125 18.3828125 C5.81862111 12.9511768 3.62599321 8.01074808 0.98828125 2.96875 C0 1 0 1 0 0 Z " fill="#A4332D" transform="translate(1257,116)"/>
<path d="M0 0 C1.65 0 3.3 0 5 0 C2.79199164 2.43859151 0.69800407 3.75988264 -2.25 5.1875 C-9.29178208 9.06392075 -13.67170434 13.82838149 -16.125 21.5625 C-17.82980431 29.68356782 -15.97400725 38.11729655 -12.89453125 45.734375 C-11.77203192 48.5773864 -11.85918213 50.97241582 -12 54 C-12.495 52.515 -12.495 52.515 -13 51 C-13.66 51 -14.32 51 -15 51 C-16.33583899 46.15758367 -17.25328119 42.06562383 -17 37 C-17.66 37 -18.32 37 -19 37 C-19.71284995 18.43949949 -19.71284995 18.43949949 -13.4375 10.4375 C-12.633125 9.633125 -11.82875 8.82875 -11 8 C-10.34 8 -9.68 8 -9 8 C-9 7.34 -9 6.68 -9 6 C-6 4 -6 4 -3 4 C-3 3.34 -3 2.68 -3 2 C-2.01 2 -1.02 2 0 2 C0 1.34 0 0.68 0 0 Z " fill="#C24D47" transform="translate(482,641)"/>
<path d="M0 0 C2.21035852 -0.00960608 4.41974682 -0.04056488 6.62988281 -0.07226562 C16.89630369 -0.14933856 24.64491505 1.33907385 33.74707031 6.24023438 C33.74707031 6.90023438 33.74707031 7.56023437 33.74707031 8.24023438 C29.08988845 6.95207769 24.52130775 5.5135698 19.95800781 3.92382812 C1.63112779 -1.74261004 -17.43350383 3.59788817 -34.25292969 11.24023438 C-33.07758456 7.71419899 -31.75436445 6.95617795 -28.56933594 5.22070312 C-24.7500053 3.60408931 -20.76881583 2.75058626 -16.72949219 1.85351562 C-11.15171367 0.47226763 -6.08377604 0.0159889 0 0 Z " fill="#C3413B" transform="translate(574.2529296875,278.759765625)"/>
<path d="M0 0 C0.33 0 0.66 0 1 0 C1.24732968 7.78739486 1.45878991 15.57521147 1.64697266 23.36425781 C1.71237485 26.00642632 1.79047426 28.64732015 1.87451172 31.2890625 C2.45596254 49.78340193 2.71864165 67.18547682 -6 84 C-7.40742022 81.18515955 -6.66652164 79.43063887 -6.0625 76.375 C-5.86785156 75.37210938 -5.67320313 74.36921875 -5.47265625 73.3359375 C-5.31667969 72.56507813 -5.16070313 71.79421875 -5 71 C-4.34 71 -3.68 71 -3 71 C-1.21260828 55.21907438 -0.59605694 39.56100025 -0.375 23.6875 C-0.33668808 21.37433641 -0.29762948 19.06118505 -0.2578125 16.74804688 C-0.16330385 11.16547575 -0.07787127 5.58282675 0 0 Z " fill="#D2302C" transform="translate(1274,697)"/>
<path d="M0 0 C0.495 0.99 0.495 0.99 1 2 C-0.41817442 4.83634884 -2.03940721 4.86615595 -5 6 C-6.2114107 6.64004239 -7.41946356 7.28646081 -8.625 7.9375 C-20.77354412 13.90011264 -32.75282401 13.34182868 -46 13 C-46.33 12.34 -46.66 11.68 -47 11 C-46.41734375 10.99589111 -45.8346875 10.99178223 -45.234375 10.98754883 C-28.74434838 10.78498856 -14.13482975 9.22690276 0 0 Z " fill="#C5423C" transform="translate(614,408)"/>
<path d="M0 0 C0.66 0.33 1.32 0.66 2 1 C1.3709375 1.556875 0.741875 2.11375 0.09375 2.6875 C-9.67900085 11.32054816 -9.67900085 11.32054816 -18.375 21 C-18.91125 21.66 -19.4475 22.32 -20 23 C-20.66 23 -21.32 23 -22 23 C-22 23.99 -22 24.98 -22 26 C-22.639375 26.103125 -23.27875 26.20625 -23.9375 26.3125 C-24.9584375 26.6528125 -24.9584375 26.6528125 -26 27 C-26.33 27.99 -26.66 28.98 -27 30 C-27.33 29.34 -27.66 28.68 -28 28 C-26.85546875 25.6875 -26.85546875 25.6875 -25.1875 23 C-24.64480469 22.113125 -24.10210937 21.22625 -23.54296875 20.3125 C-21.77216666 17.65853838 -20.78590315 16.23364688 -17.6875 15.3125 C-14.34710582 13.6811447 -13.32322107 11.77804263 -11.3203125 8.7421875 C-9.32916568 6.11481625 -6.80545042 4.67133216 -4 3 C-2.65824027 2.01133494 -1.32103998 1.0161846 0 0 Z " fill="#CA3530" transform="translate(201,101)"/>
<path d="M0 0 C2.97 0 5.94 0 9 0 C9 0.66 9 1.32 9 2 C10.36125 2.2165625 10.36125 2.2165625 11.75 2.4375 C14.21476956 2.86409473 16.58847107 3.35074221 19 4 C19 4.66 19 5.32 19 6 C20.134375 6.268125 21.26875 6.53625 22.4375 6.8125 C23.613125 7.204375 24.78875 7.59625 26 8 C26.33 8.99 26.66 9.98 27 11 C27.66 11 28.32 11 29 11 C29 11.66 29 12.32 29 13 C30.32 13.33 31.64 13.66 33 14 C33 14.66 33 15.32 33 16 C33.99 16.33 34.98 16.66 36 17 C36 17.66 36 18.32 36 19 C36.99 19.33 37.98 19.66 39 20 C38.505 21.485 38.505 21.485 38 23 C37.55011719 22.50371094 37.10023438 22.00742187 36.63671875 21.49609375 C31.32956687 15.89114577 25.67311426 11.8468541 19 8 C18.3090625 7.5978125 17.618125 7.195625 16.90625 6.78125 C11.55658471 3.88716878 5.88711925 2.42849217 0 1 C0 0.67 0 0.34 0 0 Z " fill="#C54944" transform="translate(863,281)"/>
<path d="M0 0 C1.18123278 3.54369833 0.73878371 5.29087217 0.0625 8.9375 C-1.89691065 20.96055041 -1.08268429 32.22470145 2 44 C-2.60370205 39.86053681 -3.80503645 34.66516706 -4.12890625 28.57666016 C-4.25693797 22.71600801 -4.16630508 16.85905583 -4 11 C-3.34 11 -2.68 11 -2 11 C-1.93941406 10.37351562 -1.87882813 9.74703125 -1.81640625 9.1015625 C-1.73261719 8.28429687 -1.64882813 7.46703125 -1.5625 6.625 C-1.48128906 5.81289063 -1.40007813 5.00078125 -1.31640625 4.1640625 C-1 2 -1 2 0 0 Z " fill="#C4413B" transform="translate(781,328)"/>
<path d="M0 0 C11.34506201 1.35591513 22.42409292 8.75627266 31 16 C31.33 16.66 31.66 17.32 32 18 C30.35 17.67 28.7 17.34 27 17 C27 16.34 27 15.68 27 15 C26.34 15 25.68 15 25 15 C24.32215454 14.31852905 24.32215454 14.31852905 23.63061523 13.62329102 C21.81306187 11.81390154 20.25749725 11.03721234 17.91015625 10.02734375 C17.12576172 9.68509766 16.34136719 9.34285156 15.53320312 8.99023438 C14.71787109 8.64283203 13.90253906 8.29542969 13.0625 7.9375 C11.4489064 7.23900237 9.83561469 6.53980685 8.22265625 5.83984375 C7.50859619 5.53425537 6.79453613 5.22866699 6.05883789 4.91381836 C4.00537737 4.00238675 2.0013217 3.02022095 0 2 C0 1.34 0 0.68 0 0 Z " fill="#74211E" transform="translate(1215,87)"/>
<path d="M0 0 C2.97 0 5.94 0 9 0 C5.59475272 2.27016485 2.35362686 3.06926538 -1.5625 4 C-2.6438623 4.26272705 -2.6438623 4.26272705 -3.74707031 4.53076172 C-13.09953137 6.77979594 -22.50536343 8.466502 -32 10 C-24.3695163 3.52401029 -9.8295563 1.77140567 0 2 C0 1.34 0 0.68 0 0 Z " fill="#C43E38" transform="translate(787,535)"/>
<path d="M0 0 C0.66 0 1.32 0 2 0 C2 0.99 2 1.98 2 3 C2.66 3 3.32 3 4 3 C4.02469081 7.3782512 4.04285557 11.75646567 4.05493164 16.13476562 C4.05996514 17.62468166 4.06679242 19.11459274 4.07543945 20.60449219 C4.08754805 22.74415304 4.09323807 24.88374868 4.09765625 27.0234375 C4.10289307 28.31169434 4.10812988 29.59995117 4.11352539 30.92724609 C4 34 4 34 3 36 C2.34 36 1.68 36 1 36 C0.67 38.31 0.34 40.62 0 43 C-1.485 43.495 -1.485 43.495 -3 44 C-3 44.66 -3 45.32 -3 46 C-3.66 46 -4.32 46 -5 46 C-4.71253906 45.443125 -4.42507813 44.88625 -4.12890625 44.3125 C-2.95553808 41.9089223 -1.93273737 39.48241717 -0.9375 37 C-0.42509766 35.7315625 -0.42509766 35.7315625 0.09765625 34.4375 C2.12049524 28.97320766 2.18328848 24.02819905 2.1875 18.25 C2.19974609 17.38117187 2.21199219 16.51234375 2.22460938 15.6171875 C2.23711476 10.06479744 1.56777848 5.3292075 0 0 Z " fill="#BF453F" transform="translate(973,528)"/>
<path d="M0 0 C1.9587043 0.14076315 3.91696093 0.2877676 5.875 0.4375 C7.51082031 0.55931641 7.51082031 0.55931641 9.1796875 0.68359375 C12 1 12 1 14 2 C16.0307477 2.15411106 18.06606421 2.24982453 20.1015625 2.31640625 C21.31328125 2.35830078 22.525 2.40019531 23.7734375 2.44335938 C25.04445313 2.48267578 26.31546875 2.52199219 27.625 2.5625 C28.90375 2.60568359 30.1825 2.64886719 31.5 2.69335938 C34.66655348 2.79969886 37.83318753 2.90172833 41 3 C36.2029965 5.77575527 31.54022093 5.38192871 26.125 5.375 C25.09882568 5.37628906 24.07265137 5.37757813 23.01538086 5.37890625 C14.76998279 5.26481001 7.72796028 4.00010936 0 1 C0 0.67 0 0.34 0 0 Z " fill="#FCD7D3" transform="translate(823,414)"/>
<path d="M0 0 C15.67744558 -0.42202496 29.03057254 0.02197484 43 8 C39.12908544 9.29030485 38.31765996 8.39439641 34.6875 6.6875 C25.87733044 3.09374722 16.79917816 2.75927075 7.38085938 2.21777344 C4.86793099 1.98791986 2.46432125 1.53557915 0 1 C0 0.67 0 0.34 0 0 Z " fill="#F8D2CD" transform="translate(567,280)"/>
<path d="M0 0 C-5.02810513 2.27352067 -10.00075993 3.96471845 -15.3125 5.4375 C-20.98093174 7.04980229 -26.41484398 8.8683801 -31.85546875 11.1484375 C-36.61723448 13.03926615 -40.95800539 14.54369438 -46 13 C-35.89857631 9.40223266 -25.78556643 5.86393155 -15.5625 2.625 C-14.77705811 2.37476074 -13.99161621 2.12452148 -13.18237305 1.86669922 C-2.78599766 -1.39299883 -2.78599766 -1.39299883 0 0 Z " fill="#C4544F" transform="translate(727,632)"/>
<path d="M0 0 C0 0.33 0 0.66 0 1 C-0.67160156 0.97679687 -1.34320312 0.95359375 -2.03515625 0.9296875 C-10.63093347 0.77440894 -19.05035664 1.44143654 -27.59985352 2.28857422 C-33.75696178 2.88049226 -39.81504517 3.12148868 -46 3 C-46 2.67 -46 2.34 -46 2 C-38.20346237 0.42392573 -30.34786891 -0.47611106 -22.4375 -1.25 C-21.48093506 -1.35425293 -20.52437012 -1.45850586 -19.53881836 -1.56591797 C-12.70329173 -2.19365252 -6.68029651 -1.54617656 0 0 Z " fill="#FCDEDA" transform="translate(957,514)"/>
<path d="M0 0 C0 0.99 0 1.98 0 3 C-0.66 3 -1.32 3 -2 3 C-2.25007813 3.57363281 -2.50015625 4.14726563 -2.7578125 4.73828125 C-4.17294576 7.31489181 -5.80413484 9.10491296 -7.875 11.1875 C-8.55304688 11.88230469 -9.23109375 12.57710937 -9.9296875 13.29296875 C-12.03086032 15.0254452 -13.34102145 15.60055703 -16 16 C-15.66141506 12.83987387 -15.05398412 12.04567887 -12.5625 9.9375 C-11.716875 9.298125 -10.87125 8.65875 -10 8 C-9.34 7.01 -8.68 6.02 -8 5 C-7.34 5 -6.68 5 -6 5 C-6 4.01 -6 3.02 -6 2 C-4.02 1.34 -2.04 0.68 0 0 Z " fill="#8B2722" transform="translate(1257,795)"/>
<path d="M0 0 C1.94143176 1.7565335 3.14334696 3.25553154 4.4375 5.5625 C6.14293645 8.22298085 7.22619299 8.70555673 10 10 C10.33 10.99 10.66 11.98 11 13 C11.99 13.33 12.98 13.66 14 14 C14.33 15.65 14.66 17.3 15 19 C15.66 19 16.32 19 17 19 C17 20.32 17 21.64 17 23 C16.34 23 15.68 23 15 23 C0 6.79310345 0 6.79310345 0 0 Z " fill="#6A1D1A" transform="translate(173,781)"/>
<path d="M0 0 C0.99 0.33 1.98 0.66 3 1 C2.34773437 1.60585938 1.69546875 2.21171875 1.0234375 2.8359375 C-6.79953808 10.33584034 -12.06070557 17.93291422 -16 28 C-16.33 28 -16.66 28 -17 28 C-17 26.35 -17 24.7 -17 23 C-16.34 23 -15.68 23 -15 23 C-14.896875 22.319375 -14.79375 21.63875 -14.6875 20.9375 C-13.18856189 14.53294624 -10.85563981 10.40395239 -6 6 C-4.89061278 4.90107869 -3.78647067 3.79683832 -2.6875 2.6875 C-1.800625 1.800625 -0.91375 0.91375 0 0 Z " fill="#C43D38" transform="translate(528,297)"/>
<path d="M0 0 C0.92941406 -0.01224609 1.85882812 -0.02449219 2.81640625 -0.03710938 C8.19930933 -0.04852996 12.66158327 0.40936542 17.75 2.1875 C17.75 2.5175 17.75 2.8475 17.75 3.1875 C6.2 3.1875 -5.35 3.1875 -17.25 3.1875 C-11.12719923 0.12609961 -6.69487724 0.00456676 0 0 Z " fill="#F6D1CC" transform="translate(848.25,279.8125)"/>
<path d="M0 0 C0.9075 0.185625 1.815 0.37125 2.75 0.5625 C5.83291129 1.20642402 5.83291129 1.20642402 8.0625 0.375 C11.02478375 -0.19834524 12.52127006 1.42812247 15 3 C16.66362417 3.34820041 18.32995171 3.68404492 20 4 C20.66 4.66 21.32 5.32 22 6 C23.31747324 6.69748583 24.64914193 7.36959957 26 8 C19.68583182 8.32968415 14.95521441 7.33412572 9.0625 5.125 C8.29615234 4.85558594 7.52980469 4.58617187 6.74023438 4.30859375 C1.13685403 2.27370806 1.13685403 2.27370806 0 0 Z " fill="#6B1916" transform="translate(214,821)"/>
<path d="M0 0 C-0.61407715 0.22139648 -1.2281543 0.44279297 -1.86083984 0.67089844 C-4.69953601 1.6954945 -7.53726896 2.72273408 -10.375 3.75 C-11.34050781 4.09804688 -12.30601562 4.44609375 -13.30078125 4.8046875 C-18.91879325 6.84074554 -24.45146039 8.97899495 -29.92822266 11.37207031 C-32 12 -32 12 -35 11 C-33.68 10.67 -32.36 10.34 -31 10 C-31 9.34 -31 8.68 -31 8 C-29.77023437 7.60167969 -29.77023437 7.60167969 -28.515625 7.1953125 C-27.43796875 6.84210937 -26.3603125 6.48890625 -25.25 6.125 C-24.18265625 5.77695312 -23.1153125 5.42890625 -22.015625 5.0703125 C-19.10544295 4.10995829 -19.10544295 4.10995829 -16.8984375 2.93359375 C-14.73778608 1.87105118 -12.73290585 1.40671538 -10.375 0.9375 C-2.29111406 -0.68733422 -2.29111406 -0.68733422 0 0 Z " fill="#C44842" transform="translate(630,583)"/>
<path d="M0 0 C0.33 0.66 0.66 1.32 1 2 C-1.32835049 3.44612394 -3.66216437 4.88185106 -6 6.3125 C-6.97259766 6.91868164 -6.97259766 6.91868164 -7.96484375 7.53710938 C-12.50901545 10.30410501 -16.90740144 12.41935235 -22 14 C-22.99 13.67 -23.98 13.34 -25 13 C-24.0925 12.566875 -23.185 12.13375 -22.25 11.6875 C-19.09102061 10.1760533 -19.09102061 10.1760533 -16.9375 8.375 C-15 7 -15 7 -12.375 6.5 C-9.63634663 6.21277591 -9.63634663 6.21277591 -8 3 C-6.0546875 2.05078125 -6.0546875 2.05078125 -3.875 1.3125 C-3.15054687 1.06113281 -2.42609375 0.80976562 -1.6796875 0.55078125 C-1.12539062 0.36902344 -0.57109375 0.18726563 0 0 Z " fill="#802420" transform="translate(1240,811)"/>
<path d="M0 0 C1.27875 -0.00773437 2.5575 -0.01546875 3.875 -0.0234375 C5.09703125 -0.02085937 6.3190625 -0.01828125 7.578125 -0.015625 C8.6909082 -0.01336914 9.80369141 -0.01111328 10.95019531 -0.00878906 C13.75 0.25 13.75 0.25 16.75 2.25 C16.06075439 2.23428955 15.37150879 2.2185791 14.66137695 2.20239258 C-3.53653321 1.64043629 -3.53653321 1.64043629 -21.25 5.25 C-21.25 4.26 -21.25 3.27 -21.25 2.25 C-14.29847525 -0.37243149 -7.35010662 -0.04500065 0 0 Z " fill="#C2413A" transform="translate(846.25,278.75)"/>
<path d="M0 0 C0.66 0.33 1.32 0.66 2 1 C1.09515208 2.15518918 0.1755794 3.29885406 -0.75 4.4375 C-1.26046875 5.07558594 -1.7709375 5.71367188 -2.296875 6.37109375 C-4.22048217 8.210874 -5.462287 8.42421638 -8 9 C-8.71247732 10.6476038 -9.37400383 12.31763529 -10 14 C-12.125 16.3125 -12.125 16.3125 -14 18 C-14.99 17.67 -15.98 17.34 -17 17 C-12.62721125 10.31638792 -7.3392976 5.78730384 -1 1 C-0.67 0.67 -0.34 0.34 0 0 Z " fill="#73201D" transform="translate(199,99)"/>
<path d="M0 0 C0.33 0 0.66 0 1 0 C0.58051389 5.87280551 -0.46900597 11.42188727 -1.875 17.125 C-2.03645508 17.79337891 -2.19791016 18.46175781 -2.36425781 19.15039062 C-3.50847762 23.66061628 -5.07432592 27.76351702 -7 32 C-8.40742022 29.18515955 -7.66652164 27.43063887 -7.0625 24.375 C-6.86785156 23.37210938 -6.67320313 22.36921875 -6.47265625 21.3359375 C-6.31667969 20.56507813 -6.16070313 19.79421875 -6 19 C-5.34 19 -4.68 19 -4 19 C-3.8453125 17.3603125 -3.8453125 17.3603125 -3.6875 15.6875 C-3.0310434 10.31034816 -1.516408 5.18821352 0 0 Z " fill="#AE3D38" transform="translate(1275,749)"/>
<path d="M0 0 C1.65 0 3.3 0 5 0 C2.80480975 2.42371163 0.74932506 3.72156147 -2.1875 5.125 C-6.98023952 7.67016396 -9.98839876 11.01795644 -13.37109375 15.20703125 C-14.17740234 16.09455078 -14.17740234 16.09455078 -15 17 C-15.66 17 -16.32 17 -17 17 C-15.69386058 13.08158173 -14.16870152 10.67359191 -11 8 C-10.34 8 -9.68 8 -9 8 C-9 7.34 -9 6.68 -9 6 C-6 4 -6 4 -3 4 C-3 3.34 -3 2.68 -3 2 C-2.01 2 -1.02 2 0 2 C0 1.34 0 0.68 0 0 Z " fill="#C74742" transform="translate(482,641)"/>
<path d="M0 0 C0.66 0.33 1.32 0.66 2 1 C0.71034824 2.37562854 -0.62689293 3.70766393 -2 5 C-2.66 5 -3.32 5 -4 5 C-4.2371875 5.56203125 -4.474375 6.1240625 -4.71875 6.703125 C-6.28947697 9.51894042 -8.21471464 11.47955416 -10.5 13.75 C-11.69109375 14.94882812 -11.69109375 14.94882812 -12.90625 16.171875 C-15 18 -15 18 -17 18 C-13.28582432 10.07066681 -6.94856219 5.08017102 0 0 Z " fill="#FDDFDC" transform="translate(810,291)"/>
<path d="M0 0 C1.11375 0.639375 2.2275 1.27875 3.375 1.9375 C11.03174121 5.74561467 18.7409823 5.19888967 27 4 C26.01 5.485 26.01 5.485 25 7 C22.19084193 7.36247201 19.6859154 7.52199976 16.875 7.5 C16.10615479 7.49790527 15.33730957 7.49581055 14.54516602 7.49365234 C8.39371674 7.32250657 4.681886 6.18381302 0 2 C0 1.34 0 0.68 0 0 Z " fill="#C54F4A" transform="translate(479,708)"/>
<path d="M0 0 C0.33 0.66 0.66 1.32 1 2 C-0.22511934 4.45023868 -1.10098997 4.72619629 -3.52734375 5.91015625 C-4.23697266 6.26013672 -4.94660156 6.61011719 -5.67773438 6.97070312 C-6.42345703 7.33099609 -7.16917969 7.69128906 -7.9375 8.0625 C-9.0502832 8.60874023 -9.0502832 8.60874023 -10.18554688 9.16601562 C-11.56239494 9.84133276 -12.94045541 10.51418727 -14.32006836 11.18383789 C-15.55044891 11.78159435 -16.77651348 12.38825674 -18 13 C-20.6723621 13.13415472 -23.32250488 13.04318541 -26 13 C-23.40444778 11.26963185 -21.83115857 10.54351878 -18.9375 9.6875 C-14.38219103 8.23876239 -10.28272482 6.22510753 -6.06640625 3.98828125 C-4 3 -4 3 -2 3 C-2 2.34 -2 1.68 -2 1 C-1.34 0.67 -0.68 0.34 0 0 Z " fill="#C44A46" transform="translate(890,405)"/>
<path d="M0 0 C0 0.66 0 1.32 0 2 C-1.62395997 2.50336767 -3.24920541 3.00258976 -4.875 3.5 C-5.77992188 3.7784375 -6.68484375 4.056875 -7.6171875 4.34375 C-10 5 -10 5 -12 5 C-12 5.66 -12 6.32 -12 7 C-16.92984325 9.03993514 -20.57960425 10.40652968 -26 10 C-23.63186818 8.42124545 -21.71519075 7.3739728 -19.12890625 6.30859375 C-18.38962891 6.00373047 -17.65035156 5.69886719 -16.88867188 5.38476562 C-16.12103516 5.07216797 -15.35339844 4.75957031 -14.5625 4.4375 C-13.79873047 4.12103516 -13.03496094 3.80457031 -12.24804688 3.47851562 C-3.76224124 0 -3.76224124 0 0 0 Z " fill="#C44A45" transform="translate(545,697)"/>
<path d="M0 0 C3.73487777 0.4979837 5.81237635 0.87491756 9 3 C9 3.66 9 4.32 9 5 C9.99 5 10.98 5 12 5 C12.061875 5.61875 12.12375 6.2375 12.1875 6.875 C12.455625 7.57625 12.72375 8.2775 13 9 C13.825 9.309375 14.65 9.61875 15.5 9.9375 C16.325 10.288125 17.15 10.63875 18 11 C18.8125 13.625 18.8125 13.625 19 16 C17.97916667 15.125 16.95833333 14.25 15.9375 13.375 C14.98037109 12.55515625 14.98037109 12.55515625 14.00390625 11.71875 C12.71856585 10.61631379 11.43458726 9.51228668 10.15234375 8.40625 C6.81964738 5.53500389 3.45624499 2.72310211 0 0 Z " fill="#C64944" transform="translate(613,290)"/>
<path d="M0 0 C-3.87136799 2.58091199 -7.53788428 3.76052341 -12 5 C-12.99 5.66 -13.98 6.32 -15 7 C-19.1384113 8.42963299 -21.80858283 9.29887873 -26 8 C-3.48288973 -1.74144487 -3.48288973 -1.74144487 0 0 Z " fill="#C24641" transform="translate(638,662)"/>
<path d="M0 0 C0.99 0.33 1.98 0.66 3 1 C2.62488281 1.52207031 2.24976563 2.04414063 1.86328125 2.58203125 C-2.20601937 8.43485405 -5.22914324 14.44067093 -8 21 C-8.33 21 -8.66 21 -9 21 C-9 18.69 -9 16.38 -9 14 C-8.34 14 -7.68 14 -7 14 C-6.896875 13.46375 -6.79375 12.9275 -6.6875 12.375 C-5.81907303 9.37497956 -4.44379704 6.7620465 -3 4 C-2.34 4 -1.68 4 -1 4 C-0.67 2.68 -0.34 1.36 0 0 Z " fill="#C4443E" transform="translate(792,305)"/>
<path d="M0 0 C2.68387755 2.68387755 3.09546996 5.17101413 4.125 8.8125 C4.47820312 10.03582031 4.83140625 11.25914062 5.1953125 12.51953125 C5.88931765 15.52127195 6.17454331 17.94549201 6 21 C2.52692502 16.42185571 0.83194673 13.99445467 0.99609375 8.07421875 C1.00129357 5.31311698 0.5402746 2.70137302 0 0 Z " fill="#691714" transform="translate(1270,137)"/>
<path d="M0 0 C3.44217744 1.56389326 6.2921696 3.61082021 9.3125 5.875 C13.42354135 8.90592861 17.49686837 11.5983298 22 14 C19 15 19 15 16.58203125 13.8125 C10.69144935 9.95745063 4.96207941 6.03316937 0 1 C0 0.67 0 0.34 0 0 Z " fill="#370504" transform="translate(192,806)"/>
<path d="M0 0 C-3.40858586 3.40858586 -8.32201465 3.93008394 -13 4.125 C-13.66 4.08375 -14.32 4.0425 -15 4 C-13.68 3.34 -12.36 2.68 -11 2 C-14.3 2 -17.6 2 -21 2 C-21 1.67 -21 1.34 -21 1 C-14.03220597 -0.32719886 -7.07011089 -0.08825381 0 0 Z " fill="#861E1A" transform="translate(1215,825)"/>
<path d="M0 0 C0.26554688 0.53496094 0.53109375 1.06992187 0.8046875 1.62109375 C1.69362294 3.39024957 2.5969683 5.15217975 3.5078125 6.91015625 C4.30832031 8.47056641 4.30832031 8.47056641 5.125 10.0625 C5.93324219 11.62677734 5.93324219 11.62677734 6.7578125 13.22265625 C8 16 8 16 8 19 C7.51080078 18.16855469 7.51080078 18.16855469 7.01171875 17.3203125 C6.57472656 16.59585938 6.13773438 15.87140625 5.6875 15.125 C5.25824219 14.40570312 4.82898438 13.68640625 4.38671875 12.9453125 C2.98247625 10.73153667 2.98247625 10.73153667 0 9 C-0.77019559 6.30981684 -0.82103589 3.81868476 -1 1 C-0.67 0.67 -0.34 0.34 0 0 Z " fill="#95322D" transform="translate(171,771)"/>
<path d="M0 0 C-1 2 -1 2 -3.9375 3 C-5.28778356 3.34873026 -6.64257924 3.68017604 -8 4 C-8.84046875 4.19980469 -9.6809375 4.39960937 -10.546875 4.60546875 C-18.08871213 6.26779676 -18.08871213 6.26779676 -22 5 C-19.64995631 4.15313741 -17.2960687 3.32249804 -14.9375 2.5 C-14.28072266 2.26152344 -13.62394531 2.02304687 -12.94726562 1.77734375 C-8.49900091 0.24345937 -4.76538301 -0.24787428 0 0 Z " fill="#C54B46" transform="translate(757,623)"/>
<path d="M0 0 C0 3.68553144 -0.8522582 5.03759752 -3 8 C-4.63064764 9.05771739 -6.30280873 10.05273046 -8 11 C-9.05389547 11.9025805 -10.09528151 12.81993169 -11.125 13.75 C-12.548125 14.86375 -12.548125 14.86375 -14 16 C-14.99 15.67 -15.98 15.34 -17 15 C-16.0925 14.4225 -15.185 13.845 -14.25 13.25 C-11.02981424 11.16397832 -11.02981424 11.16397832 -8.75 8.75 C-7.88375 7.88375 -7.88375 7.88375 -7 7 C-6.34 7 -5.68 7 -5 7 C-4.731875 6.401875 -4.46375 5.80375 -4.1875 5.1875 C-3.01506533 3.02775192 -1.80630718 1.64209744 0 0 Z " fill="#C6534D" transform="translate(632,392)"/>
<path d="M0 0 C0.99 0.66 1.98 1.32 3 2 C2.36610765 5.49844386 0.94822306 7.84086876 -1.0625 10.75 C-1.61035156 11.54921875 -2.15820312 12.3484375 -2.72265625 13.171875 C-3.14417969 13.77515625 -3.56570313 14.3784375 -4 15 C-4 8 -4 8 -3 5 C-2.34 4.67 -1.68 4.34 -1 4 C-0.34786708 1.97536745 -0.34786708 1.97536745 0 0 Z " fill="#831F1B" transform="translate(1263,780)"/>
<path d="M0 0 C-2.5607445 0.98397585 -5.12341492 1.96229967 -7.6875 2.9375 C-8.7693457 3.35418945 -8.7693457 3.35418945 -9.87304688 3.77929688 C-13.56271893 5.17766574 -17.08108282 6.38936004 -21 7 C-21 6.34 -21 5.68 -21 5 C-17.77791851 3.12045246 -14.55140641 2.3452937 -10.95703125 1.51171875 C-8.82651211 1.00735978 -8.82651211 1.00735978 -6.25 -0.1875 C-3.63628776 -1.13134053 -2.59793893 -0.76955754 0 0 Z " fill="#C3453F" transform="translate(584,600)"/>
<path d="M0 0 C10.395 3.465 10.395 3.465 21 7 C21 7.33 21 7.66 21 8 C5.83333333 6.375 5.83333333 6.375 0 2 C0 1.34 0 0.68 0 0 Z " fill="#C34A46" transform="translate(544,411)"/>
<path d="M0 0 C0.66 0 1.32 0 2 0 C3.98046875 2.51953125 3.98046875 2.51953125 6.1875 5.8125 C6.92355469 6.89144531 7.65960937 7.97039062 8.41796875 9.08203125 C8.94003906 10.04496094 9.46210937 11.00789063 10 12 C9.67 12.99 9.34 13.98 9 15 C3.9538789 10.79489908 2.13180603 6.13340841 0 0 Z " fill="#5E1815" transform="translate(1257,116)"/>
<path d="M0 0 C-0.99 0.33 -1.98 0.66 -3 1 C-3 1.66 -3 2.32 -3 3 C-8.10334017 4.905247 -12.46342706 6.42589023 -18 6 C-14.87754953 3.91836635 -11.92965119 2.67424387 -8.4375 1.3125 C-7.28121094 0.85488281 -6.12492188 0.39726563 -4.93359375 -0.07421875 C-2 -1 -2 -1 0 0 Z " fill="#C74843" transform="translate(679,647)"/>
<path d="M0 0 C-3.68713736 2.26169766 -7.539556 2.63948566 -11.75 3.125 C-12.44738281 3.21136719 -13.14476562 3.29773438 -13.86328125 3.38671875 C-15.57472332 3.59771846 -17.28726629 3.79975501 -19 4 C-19 3.34 -19 2.68 -19 2 C-12.65176798 -0.30844801 -6.70518586 -0.19818283 0 0 Z " fill="#FADBD8" transform="translate(852,599)"/>
<path d="M0 0 C2.97 0 5.94 0 9 0 C5.50412041 2.33058639 2.07958685 3.19132 -1.9375 4.1875 C-2.65357422 4.37763672 -3.36964844 4.56777344 -4.10742188 4.76367188 C-7.80339833 5.6919477 -10.36551019 6.1215946 -14 5 C-4.58997722 1.55580866 -4.58997722 1.55580866 0 2 C0 1.34 0 0.68 0 0 Z " fill="#C14B45" transform="translate(787,535)"/>
<path d="M0 0 C1.65 0 3.3 0 5 0 C1.9703348 2.44814179 -1.07549599 4.09452853 -4.625 5.6875 C-5.58664062 6.12449219 -6.54828125 6.56148437 -7.5390625 7.01171875 C-10 8 -10 8 -12 8 C-12 7.34 -12 6.68 -12 6 C-10.02 5.67 -8.04 5.34 -6 5 C-5.67 4.01 -5.34 3.02 -5 2 C-3.35 2 -1.7 2 0 2 C0 1.34 0 0.68 0 0 Z " fill="#C53F3A" transform="translate(499,633)"/>
<path d="M0 0 C-0.33 0.99 -0.66 1.98 -1 3 C-2.7015625 3.2165625 -2.7015625 3.2165625 -4.4375 3.4375 C-7.80777201 3.61171478 -7.80777201 3.61171478 -9 5 C-10.51928038 5.07179964 -12.04167482 5.08392007 -13.5625 5.0625 C-14.38878906 5.05347656 -15.21507812 5.04445313 -16.06640625 5.03515625 C-16.70449219 5.02355469 -17.34257813 5.01195312 -18 5 C-14.88446461 2.92297641 -12.60989929 2.25093145 -9 1.375 C-7.948125 1.11460937 -6.89625 0.85421875 -5.8125 0.5859375 C-3 0 -3 0 0 0 Z " fill="#FAD5D1" transform="translate(761,544)"/>
<path d="M0 0 C0 0.33 0 0.66 0 1 C-2.24886238 1.50509208 -4.49913869 2.00389179 -6.75 2.5 C-8.62945313 2.91765625 -8.62945313 2.91765625 -10.546875 3.34375 C-14 4 -14 4 -18 4 C-18 3.34 -18 2.68 -18 2 C-12.12116651 -0.61281488 -6.29268272 -0.18328202 0 0 Z " fill="#C64943" transform="translate(818,531)"/>
<path d="M0 0 C1.1055189 0.93590504 2.20935453 1.87379858 3.3125 2.8125 C3.92738281 3.33457031 4.54226563 3.85664062 5.17578125 4.39453125 C6.85424679 5.87172469 8.43882034 7.40039131 10 9 C9.67 9.66 9.34 10.32 9 11 C8.4225 10.54625 7.845 10.0925 7.25 9.625 C5.11834028 7.93335349 5.11834028 7.93335349 2.8125 7.1875 C1 6 1 6 0.25 2.875 C0.1675 1.92625 0.085 0.9775 0 0 Z " fill="#7D211D" transform="translate(1247,105)"/>
<path d="M0 0 C1.79296875 0.1640625 1.79296875 0.1640625 4 1 C5.73828125 3.3984375 5.73828125 3.3984375 7.3125 6.375 C7.84488281 7.35210937 8.37726562 8.32921875 8.92578125 9.3359375 C10 12 10 12 9 15 C6 10 3 5 0 0 Z " fill="#C44541" transform="translate(902,304)"/>
<path d="M0 0 C0 3.61029169 -0.96092582 6.55806676 -2 10 C-2.639375 10.103125 -3.27875 10.20625 -3.9375 10.3125 C-4.9584375 10.6528125 -4.9584375 10.6528125 -6 11 C-6.33 11.99 -6.66 12.98 -7 14 C-7.33 13.34 -7.66 12.68 -8 12 C-6.85546875 9.6875 -6.85546875 9.6875 -5.1875 7 C-4.64480469 6.113125 -4.10210937 5.22625 -3.54296875 4.3125 C-2 2 -2 2 0 0 Z " fill="#591512" transform="translate(181,117)"/>
<path d="M0 0 C-1.32 0.33 -2.64 0.66 -4 1 C-4.33 2.32 -4.66 3.64 -5 5 C-9.455 5.495 -9.455 5.495 -14 6 C-11.87266262 2.80899394 -10.94766614 2.23969544 -7.5625 0.75 C-6.38880859 0.21632813 -6.38880859 0.21632813 -5.19140625 -0.328125 C-3 -1 -3 -1 0 0 Z " fill="#651B18" transform="translate(221,89)"/>
<path d="M0 0 C0.33 0 0.66 0 1 0 C0.8858134 1.93816735 0.75826577 3.87555099 0.625 5.8125 C0.55539062 6.89144531 0.48578125 7.97039062 0.4140625 9.08203125 C0 12 0 12 -2 15 C-2.99 14.67 -3.98 14.34 -5 14 C-4.72285156 13.40832031 -4.44570313 12.81664062 -4.16015625 12.20703125 C-1.44225847 6.30953569 -1.44225847 6.30953569 0 0 Z " fill="#C74843" transform="translate(644,366)"/>
<path d="M0 0 C0.33 0.66 0.66 1.32 1 2 C-0.6188996 3.03048037 -2.24532489 4.04914678 -3.875 5.0625 C-4.77992187 5.63097656 -5.68484375 6.19945312 -6.6171875 6.78515625 C-7.40351562 7.18605469 -8.18984375 7.58695313 -9 8 C-9.66 7.67 -10.32 7.34 -11 7 C-8.47605975 2.4253583 -4.71849937 1.47943448 0 0 Z " fill="#721D1A" transform="translate(1240,811)"/>
<path d="M0 0 C-2.42604752 2.42604752 -4.14192776 2.75843519 -7.4375 3.625 C-8.40558594 3.88539063 -9.37367188 4.14578125 -10.37109375 4.4140625 C-13 5 -13 5 -16 5 C-16 4.34 -16 3.68 -16 3 C-14.27318563 2.49193553 -12.54342021 1.99389533 -10.8125 1.5 C-9.84957031 1.2215625 -8.88664063 0.943125 -7.89453125 0.65625 C-5.14654124 0.03322392 -2.80401584 -0.12302812 0 0 Z " fill="#FCDFDA" transform="translate(690,642)"/>
<path d="M0 0 C1.16161779 2.86578759 0.9946154 4.01630163 0.00390625 7.015625 C-0.70958984 8.61664063 -0.70958984 8.61664063 -1.4375 10.25 C-1.91058594 11.32765625 -2.38367188 12.4053125 -2.87109375 13.515625 C-3.24363281 14.33546875 -3.61617187 15.1553125 -4 16 C-5.41131097 12.23948152 -4.5449072 9.97977756 -3.125 6.3125 C-2.75632812 5.33925781 -2.38765625 4.36601562 -2.0078125 3.36328125 C-1 1 -1 1 0 0 Z " fill="#FAD3CF" transform="translate(916,364)"/>
<path d="M0 0 C0.33 1.32 0.66 2.64 1 4 C0.38125 4.226875 -0.2375 4.45375 -0.875 4.6875 C-3.6219805 6.38416443 -3.86635273 8.05251711 -5 11 C-5.99 11.33 -6.98 11.66 -8 12 C-6.59023295 8.96147295 -4.91129772 6.4060405 -2.875 3.75 C-2.06675781 2.69039063 -2.06675781 2.69039063 -1.2421875 1.609375 C-0.83226562 1.07828125 -0.42234375 0.5471875 0 0 Z " fill="#C34842" transform="translate(908,386)"/>
<path d="M0 0 C3.35433109 0.94933899 6.69246505 1.89748835 10 3 C10 3.66 10 4.32 10 5 C11.32 5 12.64 5 14 5 C14 5.66 14 6.32 14 7 C4.22210581 3.99633316 4.22210581 3.99633316 0 1 C0 0.67 0 0.34 0 0 Z " fill="#FBD9D5" transform="translate(540,408)"/>
<path d="M0 0 C0.33 0.66 0.66 1.32 1 2 C-2.44615385 7.78461538 -2.44615385 7.78461538 -5.25 8.875 C-5.8275 8.91625 -6.405 8.9575 -7 9 C-5.44499019 5.18315774 -2.96404505 2.80804268 0 0 Z " fill="#C03B35" transform="translate(1260,788)"/>
<path d="M0 0 C1.65 0 3.3 0 5 0 C2.6975881 2.60045875 0.50103323 3.84739183 -2.6875 5.1875 C-3.49574219 5.53167969 -4.30398438 5.87585938 -5.13671875 6.23046875 C-5.75160156 6.48441406 -6.36648438 6.73835937 -7 7 C-6.67 6.01 -6.34 5.02 -6 4 C-5.01 4 -4.02 4 -3 4 C-3 3.34 -3 2.68 -3 2 C-2.01 2 -1.02 2 0 2 C0 1.34 0 0.68 0 0 Z " fill="#C33F3A" transform="translate(482,641)"/>
<path d="M0 0 C1.72694675 -0.13609913 3.45704722 -0.23249228 5.1875 -0.3125 C6.15042969 -0.37050781 7.11335937 -0.42851562 8.10546875 -0.48828125 C11 0 11 0 16 5 C10.72 3.68 5.44 2.36 0 1 C0 0.67 0 0.34 0 0 Z " fill="#C0514C" transform="translate(947,512)"/>
<path d="M0 0 C3.43970626 1.14656875 3.8782229 1.84518278 5.75 4.8125 C6.19859375 5.49957031 6.6471875 6.18664062 7.109375 6.89453125 C8.16892656 9.39934831 7.92399724 10.49281235 7 13 C6.01719585 11.39805929 5.03888283 9.79336258 4.0625 8.1875 C3.51722656 7.29417969 2.97195313 6.40085937 2.41015625 5.48046875 C1 3 1 3 0 0 Z " fill="#C34541" transform="translate(632,306)"/>
<path d="M0 0 C-2.64 0.66 -5.28 1.32 -8 2 C-8 2.66 -8 3.32 -8 4 C-9.65 4.33 -11.3 4.66 -13 5 C-12 2 -12 2 -10.29296875 1.015625 C-9.59816406 0.76296875 -8.90335938 0.5103125 -8.1875 0.25 C-7.15689453 -0.14445312 -7.15689453 -0.14445312 -6.10546875 -0.546875 C-4 -1 -4 -1 0 0 Z " fill="#BA3B36" transform="translate(229,88)"/>
<path d="M0 0 C0.99 0.33 1.98 0.66 3 1 C2.33501617 5.38889325 0.81242323 8.9811485 -1 13 C-2.40742022 10.18515955 -1.66652164 8.43063887 -1.0625 5.375 C-0.86785156 4.37210938 -0.67320313 3.36921875 -0.47265625 2.3359375 C-0.31667969 1.56507813 -0.16070313 0.79421875 0 0 Z " fill="#701C19" transform="translate(1269,768)"/>
<path d="M0 0 C-4.89839001 3.89359206 -8.7950962 4.7242265 -15 5 C-12.30932731 3.20621821 -9.91421743 2.02686042 -6.9375 0.8125 C-5.62072266 0.26529297 -5.62072266 0.26529297 -4.27734375 -0.29296875 C-2 -1 -2 -1 0 0 Z " fill="#C5534F" transform="translate(561,691)"/>
<path d="M0 0 C1.65 0 3.3 0 5 0 C3.66272409 2.67455183 2.26711677 2.98881385 -0.4375 4.1875 C-1.24058594 4.55230469 -2.04367187 4.91710937 -2.87109375 5.29296875 C-5 6 -5 6 -7 5 C-6.34 4.01 -5.68 3.02 -5 2 C-2.375 1.8125 -2.375 1.8125 0 2 C0 1.34 0 0.68 0 0 Z " fill="#C44540" transform="translate(516,625)"/>
<path d="M0 0 C-4.65492322 3.56877447 -9.34849564 3.68175995 -15 4 C-12.83900627 1.83900627 -11.4789582 1.28436284 -8.625 0.3125 C-7.46871094 -0.09548828 -7.46871094 -0.09548828 -6.2890625 -0.51171875 C-3.79944692 -1.04278009 -2.38446982 -0.81115526 0 0 Z " fill="#FBD3CE" transform="translate(648,578)"/>
<path d="M0 0 C1.12377697 3.30435084 0.89554742 5.0506862 -0.4375 8.25 C-0.72496094 8.95640625 -1.01242187 9.6628125 -1.30859375 10.390625 C-1.53675781 10.92171875 -1.76492188 11.4528125 -2 12 C-2.66 12 -3.32 12 -4 12 C-4 12.66 -4 13.32 -4 14 C-4.66 14 -5.32 14 -6 14 C-5.71382812 13.44828125 -5.42765625 12.8965625 -5.1328125 12.328125 C-3.92260849 9.84094711 -2.8904694 7.32252247 -1.875 4.75 C-1.52179687 3.85796875 -1.16859375 2.9659375 -0.8046875 2.046875 C-0.53914062 1.37140625 -0.27359375 0.6959375 0 0 Z " fill="#CC5B57" transform="translate(974,560)"/>
<path d="M0 0 C0.66 0.33 1.32 0.66 2 1 C-0.64 3.97 -3.28 6.94 -6 10 C-6.99 9.67 -7.98 9.34 -9 9 C-6.03 6.03 -3.06 3.06 0 0 Z " fill="#FDE4E1" transform="translate(534,294)"/>
<path d="M0 0 C5.75 4.625 5.75 4.625 8 8 C7.625 10.1875 7.625 10.1875 7 12 C7 11.01 7 10.02 7 9 C6.401875 8.773125 5.80375 8.54625 5.1875 8.3125 C2.40651597 6.64390958 1.4358084 4.8716168 0 2 C0 1.34 0 0.68 0 0 Z " fill="#B93D38" transform="translate(1252,112)"/>
<path d="M0 0 C0.66 0.33 1.32 0.66 2 1 C1.07038578 2.15224028 0.1309875 3.29659176 -0.8125 4.4375 C-1.59560547 5.39462891 -1.59560547 5.39462891 -2.39453125 6.37109375 C-4 8 -4 8 -7 9 C-6.82374165 6.62051228 -6.30280227 5.29774151 -4.59765625 3.62109375 C-3.09350908 2.37884514 -1.54870149 1.18623944 0 0 Z " fill="#7B2522" transform="translate(199,99)"/>
<path d="M0 0 C-4.7842494 3.1894996 -8.22424557 4.26863974 -14 4 C-9.2157506 0.8105004 -5.77575443 -0.26863974 0 0 Z " fill="#C6433D" transform="translate(533,703)"/>
<path d="M0 0 C0.66 0.33 1.32 0.66 2 1 C0.59248779 1.86916887 -0.8264521 2.71985149 -2.25 3.5625 C-3.03890625 4.03816406 -3.8278125 4.51382812 -4.640625 5.00390625 C-7.30844625 6.13022151 -8.34501768 6.0169313 -11 5 C-9.730447 4.35165346 -8.45930294 3.70642185 -7.1875 3.0625 C-6.47980469 2.70285156 -5.77210938 2.34320313 -5.04296875 1.97265625 C-3 1 -3 1 0 0 Z " fill="#FBD7D4" transform="translate(827,283)"/>
<path d="M0 0 C0.79921875 0.01804687 1.5984375 0.03609375 2.421875 0.0546875 C3.02515625 0.07789063 3.6284375 0.10109375 4.25 0.125 C4.25 0.455 4.25 0.785 4.25 1.125 C0.29 2.115 -3.67 3.105 -7.75 4.125 C-8.08 3.465 -8.41 2.805 -8.75 2.125 C-5.68753253 0.34090198 -3.52920727 -0.10380021 0 0 Z " fill="#FCDEDA" transform="translate(720.75,630.875)"/>
<path d="M0 0 C-3.07692746 2.6815279 -5.19734663 3.42087807 -9.25 3.6875 C-10.14203125 3.75324219 -11.0340625 3.81898438 -11.953125 3.88671875 C-12.62859375 3.92410156 -13.3040625 3.96148438 -14 4 C-11.68516093 1.68516093 -10.10977477 1.2391044 -7 0.3125 C-6.113125 0.04050781 -5.22625 -0.23148438 -4.3125 -0.51171875 C-2 -1 -2 -1 0 0 Z " fill="#F9D2CD" transform="translate(684,566)"/>
<path d="M0 0 C0.625 1.8125 0.625 1.8125 1 4 C0.01 5.485 0.01 5.485 -1 7 C-1.66 7 -2.32 7 -3 7 C-3 8.65 -3 10.3 -3 12 C-3.66 11.67 -4.32 11.34 -5 11 C-3.77472971 6.94718288 -2.30119506 3.55639236 0 0 Z " fill="#FAD5D1" transform="translate(518,312)"/>
<path d="M0 0 C0.99 0.33 1.98 0.66 3 1 C2.52949219 1.39832031 2.05898438 1.79664063 1.57421875 2.20703125 C0.64029297 3.00173828 0.64029297 3.00173828 -0.3125 3.8125 C-0.92738281 4.33457031 -1.54226563 4.85664063 -2.17578125 5.39453125 C-3.85424679 6.87172469 -5.43882034 8.40039131 -7 10 C-6.42424336 6.64749299 -5.40693737 5.06181371 -2.9375 2.75 C-2.38964844 2.22921875 -1.84179688 1.7084375 -1.27734375 1.171875 C-0.64505859 0.59179688 -0.64505859 0.59179688 0 0 Z " fill="#C34340" transform="translate(802,295)"/>
<path d="M0 0 C-3.16240582 2.10827055 -4.50657469 2.33817465 -8.1875 2.625 C-9.53908203 2.73714844 -9.53908203 2.73714844 -10.91796875 2.8515625 C-11.94857422 2.92503906 -11.94857422 2.92503906 -13 3 C-9.54666565 -0.45333435 -4.63654999 -1.85462 0 0 Z " fill="#C2443F" transform="translate(694,643)"/>
<path d="M0 0 C0.33 0.66 0.66 1.32 1 2 C-0.32 3.65 -1.64 5.3 -3 7 C-4.32 6.67 -5.64 6.34 -7 6 C-4.69 4.02 -2.38 2.04 0 0 Z " fill="#C63F3A" transform="translate(899,398)"/>
<path d="M0 0 C0.79921875 0.01804687 1.5984375 0.03609375 2.421875 0.0546875 C3.02515625 0.07789063 3.6284375 0.10109375 4.25 0.125 C4.25 0.455 4.25 0.785 4.25 1.125 C-2.68 2.61 -2.68 2.61 -9.75 4.125 C-7.74279909 0.11059818 -4.14831196 -0.12200918 0 0 Z " fill="#C14D48" transform="translate(724.75,551.875)"/>
<path d="M0 0 C3 1 3 1 4.1875 3.25 C4.99938294 5.99791147 5.16260121 8.15447889 5 11 C0 3.5 0 3.5 0 0 Z " fill="#C74A45" transform="translate(640,320)"/>
<path d="M0 0 C0.33 0 0.66 0 1 0 C0.67 2.97 0.34 5.94 0 9 C-0.99 9 -1.98 9 -3 9 C-2.01 6.03 -1.02 3.06 0 0 Z " fill="#812824" transform="translate(172,131)"/>
<path d="M0 0 C2.22825644 2.22825644 2.69239369 3.65761628 3.625 6.625 C4.01558594 7.85089844 4.01558594 7.85089844 4.4140625 9.1015625 C4.60742188 9.72804688 4.80078125 10.35453125 5 11 C4.01 10.67 3.02 10.34 2 10 C0.47839986 6.3962102 0 3.94779314 0 0 Z " fill="#C6524D" transform="translate(783,373)"/>
<path d="M0 0 C-3.03525486 2.02350324 -4.19426202 2.32124018 -7.6875 2.625 C-8.49574219 2.69976563 -9.30398438 2.77453125 -10.13671875 2.8515625 C-10.75160156 2.90054688 -11.36648438 2.94953125 -12 3 C-4.82142857 -1.78571429 -4.82142857 -1.78571429 0 0 Z " fill="#C34D46" transform="translate(573,687)"/>
<path d="M0 0 C4.95 1.98 4.95 1.98 10 4 C10 4.33 10 4.66 10 5 C6.63295715 5.2295711 4.58629732 5.33943529 1.625 3.625 C1.08875 3.08875 0.5525 2.5525 0 2 C0 1.34 0 0.68 0 0 Z " fill="#C34741" transform="translate(812,409)"/>
<path d="M0 0 C0.33 0.66 0.66 1.32 1 2 C0.67 2.66 0.34 3.32 0 4 C-2.06640625 4.6328125 -2.06640625 4.6328125 -4.5625 5.125 C-5.38878906 5.29257812 -6.21507812 5.46015625 -7.06640625 5.6328125 C-7.70449219 5.75398438 -8.34257813 5.87515625 -9 6 C-7.71502463 3.43004926 -6.50087627 3.09565537 -3.9375 1.875 C-3.20402344 1.52179688 -2.47054687 1.16859375 -1.71484375 0.8046875 C-1.14894531 0.53914063 -0.58304688 0.27359375 0 0 Z " fill="#C8534E" transform="translate(614,408)"/>
<path d="M0 0 C0.62109375 1.796875 0.62109375 1.796875 1 4 C-0.9375 7.25 -0.9375 7.25 -3 10 C-3.33 9.34 -3.66 8.68 -4 8 C-3.22265625 6.0546875 -3.22265625 6.0546875 -2.0625 3.875 C-1.49208984 2.78832031 -1.49208984 2.78832031 -0.91015625 1.6796875 C-0.60980469 1.12539063 -0.30945313 0.57109375 0 0 Z " fill="#C34D48" transform="translate(913,376)"/>
<path d="M0 0 C0.99 0.33 1.98 0.66 3 1 C-0.465 3.97 -0.465 3.97 -4 7 C-3.04065919 3.16263678 -2.76390737 2.40339772 0 0 Z " fill="#C5514B" transform="translate(528,297)"/>
<path d="M0 0 C0.66 0.33 1.32 0.66 2 1 C-2.455 3.97 -2.455 3.97 -7 7 C-7 6.01 -7 5.02 -7 4 C-1.7265625 0.77734375 -1.7265625 0.77734375 0 0 Z " fill="#C44744" transform="translate(538,290)"/>
<path d="M0 0 C2.97 1.65 5.94 3.3 9 5 C7.68 5.33 6.36 5.66 5 6 C2.25 4.1875 2.25 4.1875 0 2 C0 1.34 0 0.68 0 0 Z " fill="#C43F3A" transform="translate(534,405)"/>
</svg>
